<?xml version="1.0" standalone="no"?>
<!DOCTYPE svg PUBLIC "-//W3C//DTD SVG 1.1//EN" "http://www.w3.org/Graphics/SVG/1.1/DTD/svg11.dtd" >
<svg xmlns="http://www.w3.org/2000/svg" xmlns:xlink="http://www.w3.org/1999/xlink" version="1.1">
<metadata>
Created by FontForge 20170731 at Fri Jun  9 18:41:58 2006
 By Aleksey,,,
Copyright (c) 2006 The Hoefler Type Foundry, Inc., dba Hoefler &#38; Frere-Jones. All Rights Reserved.
</metadata>
<defs>
<font id="VerlagCondensed-XLight" horiz-adv-x="374" >
  <font-face 
    font-family="Verlag Condensed XLight"
    font-weight="275"
    font-stretch="normal"
    units-per-em="1000"
    panose-1="0 0 0 0 0 0 0 0 0 0"
    ascent="800"
    descent="-200"
    x-height="430"
    cap-height="733"
    bbox="-57 -228 813 1015"
    underline-thickness="50"
    underline-position="-200"
    unicode-range="U+0020-2212"
  />
<missing-glyph horiz-adv-x="500" 
 />
    <glyph glyph-name="f_f_i" unicode="ffi" horiz-adv-x="569" 
d="M237 731l-7 -28q-23 9 -50 9q-73 0 -73 -109v-173h96v-29h-96v-401h-31v400h-64v16l64 14v172q0 70 29 104t76 34q31 0 56 -9zM447 731l-7 -28q-23 9 -50 9q-73 0 -73 -109v-173h96v-29h-96v-401h-31v400h-64v16l64 14v172q0 70 29 104t76 34q31 0 56 -9zM521 582
q0 -11 -7.5 -19t-19.5 -8q-11 0 -19 8t-8 19q0 12 8 20t19 8q12 0 19.5 -8t7.5 -20zM510 0h-31v430h31v-430z" />
    <glyph glyph-name="f_f_l" unicode="ffl" horiz-adv-x="569" 
d="M237 731l-7 -28q-23 9 -50 9q-73 0 -73 -109v-173h96v-29h-96v-401h-31v400h-64v16l64 14v172q0 70 29 104t76 34q31 0 56 -9zM447 731l-7 -28q-23 9 -50 9q-73 0 -73 -109v-173h96v-29h-96v-401h-31v400h-64v16l64 14v172q0 70 29 104t76 34q31 0 56 -9zM510 0h-31v733
h31v-733z" />
    <glyph glyph-name="f_f" unicode="ff" horiz-adv-x="420" 
d="M237 731l-7 -28q-23 9 -50 9q-73 0 -73 -109v-173h96v-29h-96v-401h-31v400h-64v16l64 14v172q0 70 29 104t76 34q31 0 56 -9zM447 731l-7 -28q-23 9 -50 9q-73 0 -73 -109v-173h96v-29h-96v-401h-31v400h-64v16l64 14v172q0 70 29 104t76 34q31 0 56 -9z" />
    <glyph glyph-name="fi" unicode="fi" horiz-adv-x="359" 
d="M311 582q0 -11 -8 -19t-19 -8t-19 8t-8 19q0 12 8 20t19 8t19 -8t8 -20zM237 731l-7 -28q-23 9 -50 9q-73 0 -73 -109v-173h96v-29h-96v-401h-31v400h-64v16l64 14v172q0 70 29 104t76 34q31 0 56 -9zM300 0h-31v430h31v-430z" />
    <glyph glyph-name="fl" unicode="fl" horiz-adv-x="359" 
d="M237 731l-7 -28q-23 9 -50 9q-73 0 -73 -109v-173h96v-29h-96v-401h-31v400h-64v16l64 14v172q0 70 29 104t76 34q31 0 56 -9zM300 0h-31v733h31v-733z" />
    <glyph glyph-name=".notdef" horiz-adv-x="500" 
 />
    <glyph glyph-name=".null" horiz-adv-x="0" 
 />
    <glyph glyph-name="nonmarkingreturn" horiz-adv-x="333" 
 />
    <glyph glyph-name="space" unicode=" " horiz-adv-x="166" 
 />
    <glyph glyph-name="exclam" unicode="!" horiz-adv-x="153" 
d="M92 733l-3 -551h-25l-4 551h32zM108 24q0 -14 -9 -23t-23 -9q-13 0 -22 9.5t-9 22.5t9 22.5t22 9.5t22.5 -9.5t9.5 -22.5z" />
    <glyph glyph-name="quotedbl" unicode="&#x22;" horiz-adv-x="255" 
d="M138 688l-89 -175l-19 10l79 180zM237 676l-89 -174l-19 10l79 179z" />
    <glyph glyph-name="numbersign" unicode="#" horiz-adv-x="445" 
d="M432 466l-3 -26h-94l-37 -221h93l-4 -25h-94l-32 -194h-28l32 194h-131l-32 -194h-29l33 194h-93l4 25h93l37 221h-94l5 26h93l33 194h28l-33 -194h132l33 194h27l-32 -194h93zM307 440h-132l-37 -221h132z" />
    <glyph glyph-name="dollar" unicode="$" horiz-adv-x="366" 
d="M213 722l25 -4l-7 -55q45 -10 88 -44l-17 -24q-34 31 -74 40l-34 -287q65 -48 97 -90t32 -105q0 -73 -45 -117t-113 -44q-10 0 -15 1l-8 -66l-25 3l8 66q-53 10 -111 56l17 24q44 -39 97 -52l37 305q-59 42 -90 84.5t-31 103.5q0 65 43 107.5t110 42.5h9zM293 151
q0 51 -26.5 87t-77.5 74l-36 -293h14q52 0 89 36t37 96zM74 520q0 -50 25.5 -85t70.5 -70l33 274h-9q-57 0 -88.5 -34.5t-31.5 -84.5z" />
    <glyph glyph-name="percent" unicode="%" horiz-adv-x="508" 
d="M241 509q0 -70 -28 -114.5t-77 -44.5t-77 44.5t-28 114.5q0 69 28 114t77 45t77 -45t28 -114zM468 656l-407 -666l-21 13l407 666zM477 151q0 -70 -28 -114.5t-77 -44.5t-77 44.5t-28 114.5q0 69 28 113.5t77 44.5t77 -44.5t28 -113.5zM212 509q0 56 -20 94.5t-56 38.5
t-56 -38.5t-20 -94.5t20 -94.5t56 -38.5t56 38.5t20 94.5zM448 151q0 56 -20 94.5t-56 38.5t-56 -38.5t-20 -94.5q0 -57 20 -95.5t56 -38.5t56 38.5t20 95.5z" />
    <glyph glyph-name="ampersand" unicode="&#x26;" horiz-adv-x="481" 
d="M428 315l26 -14q-48 -116 -97 -185q59 -73 91 -110l-24 -19q-47 52 -86 102q-72 -97 -155 -97q-64 0 -104 45t-40 117q0 122 124 205q-48 101 -48 169q0 60 33 101.5t83 41.5q47 0 75.5 -34.5t28.5 -85.5q0 -113 -133 -201q47 -89 137 -209q49 73 89 174zM303 549
q0 42 -19.5 68.5t-53.5 26.5q-35 0 -59.5 -34.5t-24.5 -80.5q0 -59 43 -154q114 73 114 174zM321 112q-98 129 -146 222q-106 -72 -106 -179q0 -58 32 -96.5t82 -38.5q68 0 138 92z" />
    <glyph glyph-name="quotesingle" unicode="'" horiz-adv-x="156" 
d="M138 688l-89 -175l-19 10l79 180z" />
    <glyph glyph-name="parenleft" unicode="(" horiz-adv-x="271" 
d="M274 -207l-19 -21q-105 97 -157.5 224t-52.5 261q0 135 52.5 262t157.5 224l20 -21q-98 -91 -148 -213t-50 -252q0 -129 50 -250.5t147 -213.5z" />
    <glyph glyph-name="parenright" unicode=")" horiz-adv-x="271" 
d="M226 257q0 -134 -52.5 -261t-157.5 -224l-19 21q98 92 148 213.5t50 250.5q0 130 -50 252t-148 213l19 21q105 -97 157.5 -224t52.5 -262z" />
    <glyph glyph-name="asterisk" unicode="*" horiz-adv-x="270" 
d="M253 641l-100 -31l63 -83l-20 -15l-61 84l-61 -84l-20 15l63 83l-100 31l8 24l99 -33l-2 104h26l-2 -104l99 33z" />
    <glyph glyph-name="plus" unicode="+" horiz-adv-x="375" 
d="M335 314h-132v-138h-31v138h-131v29h131v138h31v-138h132v-29z" />
    <glyph glyph-name="comma" unicode="," horiz-adv-x="112" 
d="M90 11q0 -32 -20 -62.5t-43 -45.5l-10 9q40 42 44 80q-17 2 -26.5 11t-9.5 22t8.5 22t20.5 9q15 0 25.5 -12.5t10.5 -32.5z" />
    <glyph glyph-name="hyphen" unicode="-" horiz-adv-x="262" 
d="M220 241h-178v32h178v-32z" />
    <glyph glyph-name="period" unicode="." horiz-adv-x="112" 
d="M25 24q0 13 9 22.5t22 9.5t22 -9.5t9 -22.5t-9 -22.5t-22 -9.5t-22 9.5t-9 22.5z" />
    <glyph glyph-name="slash" unicode="/" horiz-adv-x="235" 
d="M232 733l-185 -949h-29l185 949h29z" />
    <glyph glyph-name="zero" unicode="0" horiz-adv-x="411" 
d="M374 330q0 -151 -43.5 -244t-125.5 -93q-81 0 -124.5 94.5t-43.5 242.5q0 149 43.5 243t125.5 94t125 -94t43 -243zM342 330q0 136 -35.5 223t-100.5 87q-66 0 -101.5 -87t-35.5 -223t35.5 -222.5t101.5 -86.5q65 0 100.5 86.5t35.5 222.5z" />
    <glyph glyph-name="one" unicode="1" horiz-adv-x="258" 
d="M154 0h-29v628l-87 -37l-9 28l118 50h7v-669z" />
    <glyph glyph-name="two" unicode="2" horiz-adv-x="360" 
d="M320 0h-302l-3 6q74 109 182 298q82 132 82 212q0 56 -31.5 89.5t-84.5 33.5q-55 0 -117 -49l-14 24q65 53 131 53q67 0 107.5 -40.5t40.5 -109.5q0 -85 -89 -228q-78 -142 -158 -261h256v-28z" />
    <glyph glyph-name="three" unicode="3" horiz-adv-x="352" 
d="M319 654l-197 -287q8 1 23 1q71 0 118.5 -47t47.5 -132q0 -90 -46.5 -143.5t-122.5 -53.5q-56 0 -120 27l12 28q60 -28 108 -28q62 0 100 44.5t38 125.5q0 74 -39 113.5t-99 39.5q-38 0 -67 -9l-5 6l200 292h-239v29h285z" />
    <glyph glyph-name="four" unicode="4" horiz-adv-x="386" 
d="M366 199h-79v-199h-28v199h-247v10l259 460h16v-444h79v-26zM259 225v368l-206 -368h206z" />
    <glyph glyph-name="five" unicode="5" horiz-adv-x="365" 
d="M323 201q0 -94 -47 -151.5t-123 -57.5q-55 0 -113 29l12 27q54 -28 102 -28q61 0 99.5 47t38.5 132q0 79 -36.5 120t-100.5 41q-44 0 -88 -14l-5 4v310h245v-27h-214v-252q24 7 63 7q77 0 122 -48.5t45 -138.5z" />
    <glyph glyph-name="six" unicode="6" 
d="M338 202q0 -92 -41.5 -150.5t-108.5 -58.5q-69 0 -108.5 61.5t-39.5 174.5q0 130 57.5 246.5t177.5 192.5l17 -23q-171 -111 -214 -314q41 73 116 73q64 0 104 -55.5t40 -146.5zM308 201q0 77 -32 126.5t-85 49.5t-86.5 -48t-33.5 -116q0 -85 32 -139t85 -54t86.5 51
t33.5 130z" />
    <glyph glyph-name="seven" unicode="7" horiz-adv-x="329" 
d="M314 660l-216 -660h-30l207 633h-259v27h298z" />
    <glyph glyph-name="eight" unicode="8" horiz-adv-x="370" 
d="M331 170q0 -79 -43 -128.5t-104 -49.5q-63 0 -104.5 49t-41.5 128q0 54 25 101t69 66q-40 19 -62.5 63.5t-22.5 98.5q0 75 39 122t98 47q60 0 99 -47t39 -122q0 -54 -22.5 -98t-61.5 -64q44 -19 68.5 -66t24.5 -100zM292 497q0 63 -30 103t-78 40t-77 -40t-29 -103
t29 -105.5t77 -42.5t78 43t30 105zM300 169q0 63 -32.5 108t-83.5 45q-50 0 -82 -45t-32 -108q0 -64 32.5 -107t81.5 -43t82.5 43t33.5 107z" />
    <glyph glyph-name="nine" unicode="9" horiz-adv-x="372" 
d="M333 431q0 -130 -57.5 -246.5t-177.5 -193.5l-17 24q168 108 214 313q-42 -73 -116 -73q-63 0 -103.5 56t-40.5 147q0 92 41.5 150.5t108.5 58.5q69 0 108.5 -62t39.5 -174zM302 446q0 85 -32.5 139.5t-84.5 54.5q-53 0 -86.5 -51t-33.5 -130q0 -77 32 -126.5t85 -49.5
t86.5 48t33.5 115z" />
    <glyph glyph-name="colon" unicode=":" horiz-adv-x="114" 
d="M26 24q0 13 9 22.5t22 9.5t22.5 -9.5t9.5 -22.5t-9.5 -22.5t-22.5 -9.5t-22 9.5t-9 22.5zM26 350q0 13 9 22.5t22 9.5t22.5 -9.5t9.5 -22.5t-9.5 -22.5t-22.5 -9.5t-22 9.5t-9 22.5z" />
    <glyph glyph-name="semicolon" unicode=";" horiz-adv-x="114" 
d="M91 11q0 -32 -20 -62.5t-43 -45.5l-10 9q40 40 44 80q-36 5 -36 33q0 13 9 22t20 9q15 0 25.5 -12.5t10.5 -32.5zM26 350q0 13 9 22.5t22 9.5t22.5 -9.5t9.5 -22.5t-9.5 -22.5t-22.5 -9.5t-22 9.5t-9 22.5z" />
    <glyph glyph-name="less" unicode="&#x3c;" horiz-adv-x="271" 
d="M239 108l-21 -19l-196 241l196 241l21 -19l-180 -222z" />
    <glyph glyph-name="equal" unicode="=" horiz-adv-x="302" 
d="M257 373h-212v29h212v-29zM257 255h-212v29h212v-29z" />
    <glyph glyph-name="greater" unicode="&#x3e;" horiz-adv-x="271" 
d="M246 330l-196 -240l-21 18l180 222l-180 222l21 19z" />
    <glyph glyph-name="question" unicode="?" horiz-adv-x="301" 
d="M277 598q0 -38 -15 -72.5t-37 -61t-44 -53.5t-37 -63t-15 -76v-74h-30v73q0 44 15 82.5t36.5 66t43 53.5t36.5 58t15 66q0 51 -30.5 83.5t-83.5 32.5q-47 0 -106 -38l-11 25q59 41 118 41q68 0 106.5 -40t38.5 -103zM145 24q0 -13 -9 -22.5t-22 -9.5q-14 0 -23 9t-9 23
q0 13 9.5 22.5t22.5 9.5t22 -9.5t9 -22.5z" />
    <glyph glyph-name="at" unicode="@" horiz-adv-x="565" 
d="M523 321q0 -97 -36 -146q-25 -32 -63 -32q-25 0 -44.5 14.5t-26.5 39.5q-33 -50 -79 -50q-35 0 -58 23.5t-23 64.5q0 39 23.5 64.5t61.5 25.5q35 0 67 -26v34q0 71 -63 71q-28 0 -61 -14l-8 25q36 17 70 17q91 0 91 -97v-93q0 -38 14.5 -56t36.5 -18q25 0 41 21
q28 37 28 131q0 109 -54.5 184t-150.5 75q-93 0 -155.5 -84.5t-62.5 -208.5q0 -120 61 -195t170 -75q50 0 107 25l9 -24q-64 -27 -116 -27q-121 0 -190 82.5t-69 213.5q0 135 71 227t176 92q108 0 170.5 -81.5t62.5 -202.5zM345 220v52q-31 27 -66 27q-25 0 -40.5 -17.5
t-15.5 -46.5t14.5 -45.5t37.5 -16.5q39 0 70 47z" />
    <glyph glyph-name="A" unicode="A" horiz-adv-x="518" 
d="M488 0h-32l-69 234h-256l-69 -234h-33l225 742h11zM378 262l-119 404l-120 -404h239z" />
    <glyph glyph-name="B" unicode="B" horiz-adv-x="449" 
d="M412 197q0 -92 -60 -148t-168 -56q-46 0 -112 10v728q65 9 111 9q105 0 161 -51t56 -129q0 -72 -41.5 -118t-106.5 -62q72 -12 116 -60.5t44 -122.5zM368 558q0 71 -47.5 112.5t-139.5 41.5q-38 0 -77 -6v-312q22 -1 62 -1q95 0 148.5 44t53.5 121zM381 196
q0 82 -55.5 126t-156.5 44q-42 0 -65 -1v-337q40 -6 81 -6q92 0 144 46t52 128z" />
    <glyph glyph-name="C" unicode="C" horiz-adv-x="514" 
d="M481 57q-84 -65 -174 -65q-115 0 -188 97.5t-73 274.5t74.5 278t188.5 101q91 0 173 -64l-17 -25q-78 60 -156 60q-98 0 -164.5 -94.5t-66.5 -255.5q0 -160 66 -252t165 -92q75 0 155 59z" />
    <glyph glyph-name="D" unicode="D" horiz-adv-x="537" 
d="M493 370q0 -167 -83.5 -272t-227.5 -105q-54 0 -110 9v730q44 8 109 8q145 0 228.5 -106.5t83.5 -263.5zM460 370q0 146 -76 243.5t-204 97.5q-44 0 -76 -5v-679q32 -5 76 -5q129 0 204.5 95t75.5 253z" />
    <glyph glyph-name="E" unicode="E" horiz-adv-x="414" 
d="M372 0h-300v733h300v-29h-268v-316h246v-29h-246v-330h268v-29z" />
    <glyph glyph-name="F" unicode="F" horiz-adv-x="408" 
d="M373 704h-269v-320h244v-28h-244v-356h-32v733h301v-29z" />
    <glyph glyph-name="G" unicode="G" horiz-adv-x="549" 
d="M304 356h187v-299q-70 -64 -175 -64q-118 0 -194 96.5t-76 275.5q0 178 75.5 278t193.5 100q91 0 175 -66l-18 -24q-76 61 -158 61q-102 0 -169 -93.5t-67 -255.5q0 -163 67 -254t173 -91q85 0 142 49v258h-156v29z" />
    <glyph glyph-name="H" unicode="H" horiz-adv-x="525" 
d="M453 0h-32v360h-317v-360h-32v733h32v-344h317v344h32v-733z" />
    <glyph glyph-name="I" unicode="I" horiz-adv-x="183" 
d="M107 0h-32v733h32v-733z" />
    <glyph glyph-name="J" unicode="J" horiz-adv-x="357" 
d="M286 733v-570q0 -83 -39.5 -128.5t-107.5 -45.5q-72 0 -128 49l19 24q50 -45 110 -45q53 0 84 37.5t31 109.5v569h31z" />
    <glyph glyph-name="K" unicode="K" horiz-adv-x="439" 
d="M416 0h-40l-272 364v-364h-32v733h32v-347l264 347h39l-275 -357z" />
    <glyph glyph-name="L" unicode="L" horiz-adv-x="379" 
d="M373 0h-301v733h32v-705h269v-28z" />
    <glyph glyph-name="M" unicode="M" horiz-adv-x="631" 
d="M564 0h-30l-10 634l-205 -475h-8l-205 475l-9 -634h-31l15 736l12 2l223 -516l222 516l12 -2z" />
    <glyph glyph-name="N" unicode="N" horiz-adv-x="538" 
d="M466 -3l-12 -1l-352 646v-642h-30v736l13 1l351 -646v642h30v-736z" />
    <glyph glyph-name="O" unicode="O" horiz-adv-x="589" 
d="M544 367q0 -162 -69 -268.5t-179 -106.5q-111 0 -180.5 106.5t-69.5 268.5q0 161 70 267.5t180 106.5t179 -106t69 -268zM512 367q0 150 -61 248t-155 98q-95 0 -156.5 -98t-61.5 -248q0 -151 61.5 -249t156.5 -98q94 0 155 98t61 249z" />
    <glyph glyph-name="P" unicode="P" horiz-adv-x="428" 
d="M396 503q0 -106 -61 -173.5t-162 -67.5q-31 0 -69 6v-268h-32v731q48 8 96 8q111 0 169.5 -67t58.5 -169zM364 503q0 88 -51 147.5t-146 59.5q-23 0 -63 -4v-410q42 -6 69 -6q87 0 139 59.5t52 153.5z" />
    <glyph glyph-name="Q" unicode="Q" horiz-adv-x="589" 
d="M551 11l-20 -21l-73 84q-68 -82 -162 -82q-111 0 -180.5 106.5t-69.5 268.5q0 161 70 267.5t180 106.5t179 -106t69 -268q0 -164 -69 -269zM512 367q0 150 -61 248t-155 98q-95 0 -156.5 -98t-61.5 -248q0 -151 61.5 -249t156.5 -98q84 0 141 79l-33 38l-68 76l-33 38
l21 21l129 -148q59 96 59 243z" />
    <glyph glyph-name="R" unicode="R" horiz-adv-x="452" 
d="M424 0h-36l-160 313q-21 -5 -53 -5q-39 0 -71 5v-313h-32v729q70 10 103 10q108 0 168 -59t60 -154q0 -74 -39 -128t-106 -77zM370 526q0 83 -50.5 133.5t-144.5 50.5q-28 0 -71 -5v-364q30 -5 71 -5q86 0 140.5 51t54.5 139z" />
    <glyph glyph-name="S" unicode="S" horiz-adv-x="416" 
d="M369 170q0 -82 -51 -131t-126 -49q-83 0 -168 64l18 26q78 -61 152 -61q60 0 102 40.5t42 106.5q0 35 -10.5 63.5t-35.5 54.5t-41.5 38.5t-53.5 39.5q-36 25 -56 41.5t-44.5 43t-35.5 57.5t-11 68q0 76 47 123.5t122 47.5t139 -53l-18 -25q-57 49 -123 49
q-59 0 -97 -38.5t-38 -99.5q0 -27 9.5 -52.5t18.5 -41t34.5 -38.5t35 -30.5t42.5 -31.5q35 -24 56.5 -42t44.5 -44.5t34.5 -57.5t11.5 -68z" />
    <glyph glyph-name="T" unicode="T" horiz-adv-x="429" 
d="M408 704h-178v-704h-31v704h-178v29h387v-29z" />
    <glyph glyph-name="U" unicode="U" horiz-adv-x="529" 
d="M460 216q0 -108 -52 -165.5t-144 -57.5q-93 0 -144 56.5t-51 166.5v517h32v-522q0 -90 43 -140t121 -50q77 0 120.5 50.5t43.5 141.5v520h31v-517z" />
    <glyph glyph-name="V" unicode="V" horiz-adv-x="510" 
d="M483 733l-222 -743h-11l-223 743h33l197 -665l193 665h33z" />
    <glyph glyph-name="W" unicode="W" horiz-adv-x="732" 
d="M693 733l-142 -740l-14 -1l-171 650l-173 -650l-13 1l-142 740h31l122 -644l169 644h12l169 -644l121 644h31z" />
    <glyph glyph-name="X" unicode="X" horiz-adv-x="487" 
d="M455 0h-35l-177 346l-177 -346h-34l194 375l-186 358h35l169 -329l168 329h34l-185 -358z" />
    <glyph glyph-name="Y" unicode="Y" horiz-adv-x="448" 
d="M428 733l-188 -413v-320h-32v319l-188 414h35l170 -379l168 379h35z" />
    <glyph glyph-name="Z" unicode="Z" horiz-adv-x="457" 
d="M421 726l-343 -697h339v-29h-381l-3 6l344 698h-324v29h366z" />
    <glyph glyph-name="bracketleft" unicode="[" horiz-adv-x="232" 
d="M219 -217h-152v949h152v-27h-121v-893h121v-29z" />
    <glyph glyph-name="backslash" unicode="\" horiz-adv-x="235" 
d="M217 -216h-29l-185 949h29z" />
    <glyph glyph-name="bracketright" unicode="]" horiz-adv-x="232" 
d="M165 -216h-151v27h120v895h-120v27h151v-949z" />
    <glyph glyph-name="asciicircum" unicode="^" horiz-adv-x="417" 
d="M312 541h-34l-70 78l-67 -78h-35l95 109h15z" />
    <glyph glyph-name="underscore" unicode="_" horiz-adv-x="458" 
d="M458 0h-458v30h458v-30z" />
    <glyph glyph-name="grave" unicode="`" horiz-adv-x="417" 
d="M292 496l-13 -18l-146 95l19 28z" />
    <glyph glyph-name="a" unicode="a" horiz-adv-x="340" 
d="M287 0h-30v46q-39 -55 -101 -55q-54 0 -89.5 36.5t-35.5 97.5q0 63 36.5 100.5t91.5 37.5q49 0 97 -34v79q0 103 -97 103q-42 0 -87 -21l-9 27q47 22 99 22q125 0 125 -126v-313zM256 78v125q-47 33 -96 33q-43 0 -70.5 -29t-27.5 -79q0 -52 26 -81t70 -29q58 0 98 60z
" />
    <glyph glyph-name="b" unicode="b" horiz-adv-x="388" 
d="M355 218q0 -102 -46 -163.5t-113 -61.5q-61 0 -109 57v-50h-31v733h31v-352q50 56 113 56q66 0 110.5 -58.5t44.5 -160.5zM323 218q0 91 -35.5 141t-89.5 50q-61 0 -111 -63v-262q52 -63 109 -63q55 0 91 54t36 143z" />
    <glyph glyph-name="c" unicode="c" horiz-adv-x="322" 
d="M300 30q-50 -38 -103 -38q-74 0 -119 62t-45 159t45 161t120 64q55 0 104 -38l-17 -24q-45 33 -88 33q-61 0 -97 -56t-36 -139t36 -138.5t98 -55.5q41 0 87 33z" />
    <glyph glyph-name="d" unicode="d" horiz-adv-x="388" 
d="M332 0h-31v49q-52 -56 -113 -56q-66 0 -110 59t-44 160q0 102 45.5 163.5t112.5 61.5q61 0 109 -55v351h31v-733zM301 84v263q-52 62 -109 62q-55 0 -91 -54t-36 -143q0 -90 36 -140.5t89 -50.5q61 0 111 63z" />
    <glyph glyph-name="e" unicode="e" horiz-adv-x="352" 
d="M318 232v-23h-253q1 -88 35.5 -138.5t99.5 -50.5q48 0 91 27q0 -1 1 -2t2.5 -4.5t2.5 -6t2.5 -5.5l2.5 -5l1 -1q-47 -31 -104 -31q-79 0 -122.5 59.5t-43.5 162.5q0 101 41.5 163t107.5 62q64 0 100 -57t36 -150zM65 236h222q-2 78 -29 126.5t-78 48.5q-48 0 -79 -48
t-36 -127z" />
    <glyph glyph-name="f" unicode="f" horiz-adv-x="210" 
d="M237 731l-7 -28q-23 9 -50 9q-73 0 -73 -109v-173h96v-29h-96v-401h-31v400h-64v16l64 14v172q0 70 29 104t76 34q31 0 56 -9z" />
    <glyph glyph-name="g" unicode="g" horiz-adv-x="388" 
d="M332 -66q0 -141 -129 -141q-58 0 -116 26l10 28q55 -26 107 -26q51 0 74 26.5t23 85.5v116q-50 -56 -113 -56q-66 0 -110 59t-44 160q0 102 45.5 163.5t112.5 61.5q60 0 110 -57v50h30v-496zM301 84v261q-52 64 -109 64q-55 0 -91 -54t-36 -143q0 -90 36 -140.5t89 -50.5
q61 0 111 63z" />
    <glyph glyph-name="h" unicode="h" horiz-adv-x="365" 
d="M316 0h-31v317q0 93 -78 93q-61 0 -124 -81v-329h-31v733h31v-370q61 75 128 75q52 0 78.5 -32t26.5 -86v-320z" />
    <glyph glyph-name="i" unicode="i" horiz-adv-x="149" 
d="M101 582q0 -11 -8 -19t-19 -8t-19 8t-8 19q0 12 8 20t19 8t19 -8t8 -20zM90 0h-31v430h31v-430z" />
    <glyph glyph-name="j" unicode="j" horiz-adv-x="150" 
d="M102 582q0 -11 -7.5 -19t-19.5 -8q-11 0 -19 8t-8 19q0 12 8 20t19 8q12 0 19.5 -8t7.5 -20zM91 430v-533q0 -100 -76 -100q-10 0 -40 5l4 29q22 -5 37 -5q22 0 33 16.5t11 58.5v529h31z" />
    <glyph glyph-name="k" unicode="k" horiz-adv-x="309" 
d="M307 0h-38l-182 216v-216h-31v733h31v-495l173 192h38l-184 -202z" />
    <glyph glyph-name="l" unicode="l" horiz-adv-x="149" 
d="M90 0h-31v733h31v-733z" />
    <glyph glyph-name="m" unicode="m" horiz-adv-x="590" 
d="M537 0h-31v320q0 42 -19 66t-54 24q-64 0 -121 -82v-328h-31v320q0 43 -18.5 66.5t-53.5 23.5q-59 0 -122 -80v-330h-31v430h30v-68q60 76 128 76q36 0 61 -21t32 -59q60 80 131 80q44 0 71.5 -30t27.5 -86v-322z" />
    <glyph glyph-name="n" unicode="n" 
d="M320 0h-30v317q0 93 -78 93q-62 0 -125 -81v-329h-31v430h30v-68q60 76 129 76q52 0 78.5 -32t26.5 -86v-320z" />
    <glyph glyph-name="o" unicode="o" horiz-adv-x="380" 
d="M347 216q0 -98 -44 -161t-113 -63q-70 0 -113 61t-43 160q0 98 43.5 161.5t112.5 63.5q70 0 113.5 -61.5t43.5 -160.5zM316 215q0 84 -34.5 139.5t-91.5 55.5q-55 0 -90 -57.5t-35 -138.5q0 -83 34.5 -138.5t90.5 -55.5t91 57t35 138z" />
    <glyph glyph-name="p" unicode="p" horiz-adv-x="388" 
d="M355 217q0 -103 -45.5 -163.5t-113.5 -60.5q-57 0 -109 52v-244h-31v629h30v-50q51 57 114 57q66 0 110.5 -59t44.5 -161zM323 217q0 91 -35.5 141.5t-89.5 50.5q-61 0 -111 -63v-266q55 -59 109 -59q55 0 91 53t36 143z" />
    <glyph glyph-name="q" unicode="q" horiz-adv-x="388" 
d="M332 -199h-31v248q-50 -56 -113 -56q-66 0 -110 59t-44 160q0 102 45.5 163.5t112.5 61.5q61 0 109 -55v48h31v-629zM301 84v263q-52 62 -109 62q-55 0 -91 -54t-36 -143q0 -90 36 -140.5t89 -50.5q61 0 111 63z" />
    <glyph glyph-name="r" unicode="r" horiz-adv-x="223" 
d="M208 407q-36 -2 -68 -26t-53 -65v-316h-31v430h30v-75q49 82 122 82v-30z" />
    <glyph glyph-name="s" unicode="s" horiz-adv-x="287" 
d="M251 102q0 -47 -30.5 -79t-80.5 -32q-60 0 -116 43l16 24q50 -40 100 -40q36 0 58.5 22.5t22.5 58.5q0 29 -18.5 53t-45 41t-53 35.5t-45 46t-18.5 63.5q0 43 30 72t76 29q52 0 99 -35l-15 -26q-44 34 -85 34q-35 0 -55 -21t-20 -51t18.5 -54.5t45 -41.5t53 -35t45 -45.5
t18.5 -61.5z" />
    <glyph glyph-name="t" unicode="t" horiz-adv-x="235" 
d="M213 401h-107v-314q0 -67 56 -67q24 0 48 7l3 -27q-28 -7 -53 -7q-44 0 -64.5 23t-20.5 72v312h-62v16l62 14v101l31 28v-129h107v-29z" />
    <glyph glyph-name="u" unicode="u" 
d="M317 0h-29v68q-62 -76 -129 -76q-52 0 -79 32t-27 86v320h31v-318q0 -92 78 -92q62 0 125 80v330h30v-430z" />
    <glyph glyph-name="v" unicode="v" horiz-adv-x="333" 
d="M318 430l-148 -441h-9l-146 441h33l118 -370l120 370h32z" />
    <glyph glyph-name="w" unicode="w" horiz-adv-x="500" 
d="M474 430l-107 -441h-10l-106 362l-108 -362h-10l-107 441h31l83 -358l107 357h8l106 -357l82 358h31z" />
    <glyph glyph-name="x" unicode="x" horiz-adv-x="306" 
d="M291 0h-32l-107 192l-105 -192h-33l123 218l-120 212h33l103 -185l101 185h33l-119 -212z" />
    <glyph glyph-name="y" unicode="y" horiz-adv-x="329" 
d="M315 430l-213 -629h-30l78 224l-138 405h33l120 -363l118 363h32z" />
    <glyph glyph-name="z" unicode="z" horiz-adv-x="305" 
d="M288 424l-230 -396h225v-28h-267l-3 6l230 396h-214v28h256z" />
    <glyph glyph-name="braceleft" unicode="{" horiz-adv-x="239" 
d="M229 -223q-61 0 -95.5 32.5t-34.5 98.5v263q0 73 -64 73h-18v30h18q64 0 64 73v262q0 66 34.5 98.5t95.5 32.5v-28q-98 0 -98 -104v-256q0 -79 -56 -93q56 -14 56 -94v-256q0 -104 98 -104v-28z" />
    <glyph glyph-name="bar" unicode="|" horiz-adv-x="181" 
d="M104 -216h-28v949h28v-949z" />
    <glyph glyph-name="braceright" unicode="}" horiz-adv-x="239" 
d="M222 244h-17q-64 0 -64 -73v-263q0 -66 -34.5 -98.5t-95.5 -32.5v28q97 0 97 104v256q0 80 56 94q-56 14 -56 93v256q0 104 -97 104v28q60 0 95 -32.5t35 -98.5v-262q0 -73 64 -73h17v-30z" />
    <glyph glyph-name="asciitilde" unicode="~" horiz-adv-x="417" 
d="M326 294q-35 -41 -73 -41q-18 1 -50 19q-29 18 -43 19q-24 0 -53 -33l-17 21q35 41 72 41q20 -1 50 -19q30 -19 43 -19q25 0 54 33z" />
    <glyph glyph-name="uni00A0" unicode="&#xa0;" horiz-adv-x="168" 
 />
    <glyph glyph-name="exclamdown" unicode="&#xa1;" horiz-adv-x="153" 
d="M45 710q0 13 9 22t22 9t22.5 -9t9.5 -22t-9.5 -22.5t-22.5 -9.5t-22 9.5t-9 22.5zM60 0l4 551h25l3 -551h-32z" />
    <glyph glyph-name="cent" unicode="&#xa2;" horiz-adv-x="336" 
d="M154 -82l5 78q-58 13 -92.5 71t-34.5 145q0 96 44 159.5t114 66.5l6 83l28 -2q-3 -18 -7 -83q43 -5 84 -36l-17 -24q-38 27 -69 31q-19 -264 -27 -387h6q44 0 90 33l15 -23q-48 -38 -107 -38h-6l-5 -76zM63 213q0 -71 26.5 -122.5t71.5 -65.5l27 384q-57 -4 -91 -60
t-34 -136z" />
    <glyph glyph-name="sterling" unicode="&#xa3;" horiz-adv-x="364" 
d="M349 630l-16 -25q-50 34 -100 34q-112 0 -112 -135v-156h138v-27h-138v-294h229v-27h-314v27h54v293h-58v13l58 16v153q0 79 37 122t109 43q60 0 113 -37z" />
    <glyph glyph-name="yen" unicode="&#xa5;" horiz-adv-x="409" 
d="M384 660l-155 -340h122v-27h-131v-97h131v-27h-131v-169h-31v169h-130v27h130v97h-130v27h121l-155 340h35l145 -326l144 326h35z" />
    <glyph glyph-name="section" unicode="&#xa7;" horiz-adv-x="363" 
d="M328 320q0 -42 -25.5 -70t-62.5 -40q62 -43 62 -103q0 -50 -36.5 -82.5t-97.5 -32.5q-74 0 -131 48l16 25q55 -45 115 -45q46 0 74 23.5t28 62.5q0 33 -24 57.5t-58 40.5t-68.5 32.5t-58.5 43.5t-24 63q0 42 26.5 70t63.5 38q-66 41 -66 102q0 50 36 80.5t95 30.5
q68 0 117 -38l-16 -25q-47 36 -101 36q-45 0 -72 -22.5t-27 -59.5q0 -31 24 -55t58.5 -40.5t69.5 -33.5t59 -43.5t24 -62.5zM296 316q0 15 -6.5 28.5t-13 22.5t-24 20t-26.5 16t-34.5 17t-34.5 16q-37 -7 -62.5 -31t-25.5 -58q0 -18 6.5 -32.5t24.5 -28t29 -20t41.5 -21
t40.5 -19.5q36 7 60.5 31t24.5 59z" />
    <glyph glyph-name="dieresis" unicode="&#xa8;" horiz-adv-x="417" 
d="M302 526q0 -12 -8.5 -21t-20.5 -9t-20.5 9t-8.5 21t8.5 20.5t20.5 8.5t20.5 -8.5t8.5 -20.5zM173 526q0 -12 -8.5 -21t-20.5 -9t-20.5 9t-8.5 21t8.5 20.5t20.5 8.5t20.5 -8.5t8.5 -20.5z" />
    <glyph glyph-name="copyright" unicode="&#xa9;" horiz-adv-x="650" 
d="M613 366q0 -158 -82.5 -268t-205.5 -110t-205.5 110t-82.5 268t82.5 268.5t205.5 110.5t205.5 -110.5t82.5 -268.5zM586 366q0 146 -74.5 250t-186.5 104t-186.5 -104t-74.5 -250t74.5 -249.5t186.5 -103.5t186.5 103.5t74.5 249.5zM426 211q-42 -30 -87 -30
q-61 0 -101.5 49.5t-40.5 137.5q0 85 40.5 136.5t101.5 51.5q48 0 89 -30l-14 -24q-36 26 -75 26q-47 0 -79 -43t-32 -116q0 -75 32.5 -117.5t80.5 -42.5q37 0 73 25z" />
    <glyph glyph-name="ordfeminine" unicode="&#xaa;" horiz-adv-x="301" 
d="M250 394h-27v35q-33 -42 -81 -42q-44 0 -73 28.5t-29 76.5q0 49 29.5 78t74.5 29q41 0 78 -24v59q0 76 -77 76q-34 0 -72 -16l-6 25q41 16 81 16q102 0 102 -98v-243zM222 457v94q-35 25 -76 25q-35 0 -56.5 -21.5t-21.5 -60.5q0 -40 21 -61t57 -21q45 0 76 45z" />
    <glyph glyph-name="guillemotleft" unicode="&#xab;" horiz-adv-x="279" 
d="M248 38h-32l-82 164l82 163h32l-82 -163zM143 38h-32l-81 164l81 163h32l-81 -163z" />
    <glyph glyph-name="registered" unicode="&#xae;" horiz-adv-x="309" 
d="M113 531v137q22 2 34 2q27 0 42 -12.5t15 -30.5q0 -29 -28 -41l36 -55h-24l-32 51q-4 -1 -11 -1t-13 1v-51h-19zM132 652v-53q6 -1 15 -1q36 0 36 29q0 26 -34 26q-12 0 -17 -1zM154 474q50 0 85 36t35 88t-35 88.5t-85 36.5t-85 -36.5t-35 -88.5q0 -51 35.5 -87.5
t84.5 -36.5zM154 458q-57 0 -97 41t-40 99q0 60 39.5 100.5t97.5 40.5t98 -40.5t40 -100.5q0 -59 -40 -99.5t-98 -40.5z" />
    <glyph glyph-name="macron" unicode="&#xaf;" horiz-adv-x="417" 
d="M322 508h-227v29h227v-29z" />
    <glyph glyph-name="degree" unicode="&#xb0;" horiz-adv-x="302" 
d="M261 597q0 -46 -31 -79.5t-79 -33.5q-49 0 -79.5 33t-30.5 80t31 80.5t79 33.5t79 -33.5t31 -80.5zM235 598q0 38 -23.5 63t-61.5 25q-37 0 -60 -25t-23 -63t23 -64t60 -26t61 26t24 64z" />
    <glyph glyph-name="acute" unicode="&#xb4;" horiz-adv-x="417" 
d="M283 573l-146 -95l-13 18l140 105z" />
    <glyph glyph-name="paragraph" unicode="&#xb6;" horiz-adv-x="439" 
d="M375 0h-31v632q-19 3 -67 5q-3 0 -8.5 -0.5t-7.5 -0.5v-636h-31v198q-86 5 -144 66.5t-58 158.5q0 107 68 174.5t183 67.5q45 0 96 -7v-658zM230 227v404q-80 -14 -125 -70t-45 -138q0 -83 49 -136.5t121 -59.5z" />
    <glyph glyph-name="periodcentered" unicode="&#xb7;" horiz-adv-x="112" 
d="M25 369q0 13 9 22.5t22 9.5t22 -9.5t9 -22.5t-9 -22.5t-22 -9.5t-22 9.5t-9 22.5z" />
    <glyph glyph-name="cedilla" unicode="&#xb8;" horiz-adv-x="417" 
d="M299 -129q0 -29 -22.5 -49t-61.5 -20q-38 0 -84 27l12 24q43 -24 74 -24q25 0 38.5 11t13.5 30q0 49 -89 59l-2 4l21 81l27 -7l-15 -57q43 -9 65.5 -30t22.5 -49z" />
    <glyph glyph-name="ordmasculine" unicode="&#xba;" horiz-adv-x="336" 
d="M296 560q0 -76 -36 -125t-92 -49q-58 0 -93 47.5t-35 125.5q0 77 35.5 126.5t92.5 49.5t92.5 -48t35.5 -127zM267 560q0 65 -27 107.5t-72 42.5t-72 -43.5t-27 -107.5q0 -65 27 -106.5t72 -41.5t72 43t27 106z" />
    <glyph glyph-name="guillemotright" unicode="&#xbb;" horiz-adv-x="279" 
d="M249 202l-81 -164h-32l81 164l-81 163h32zM145 202l-82 -164h-32l82 164l-82 163h32z" />
    <glyph glyph-name="questiondown" unicode="&#xbf;" horiz-adv-x="301" 
d="M156 710q0 13 9 22.5t22 9.5t22.5 -9.5t9.5 -22.5t-9.5 -22.5t-22.5 -9.5t-22 9.5t-9 22.5zM24 136q0 38 15 72.5t36.5 61t43.5 53.5t37 63t15 76v74h30q1 -71 0 -73q0 -44 -15 -82.5t-36.5 -66t-43 -53.5t-36.5 -58t-15 -66q0 -51 30.5 -83.5t84.5 -32.5q48 0 105 38
l12 -25q-59 -41 -118 -41q-68 0 -106.5 40t-38.5 103z" />
    <glyph glyph-name="Agrave" unicode="&#xc0;" horiz-adv-x="518" 
d="M488 0h-32l-69 234h-256l-69 -234h-33l225 742h11zM378 262l-119 404l-120 -404h239zM287 802l-13 -18l-146 95l19 28z" />
    <glyph glyph-name="Aacute" unicode="&#xc1;" horiz-adv-x="518" 
d="M488 0h-32l-69 234h-256l-69 -234h-33l225 742h11zM378 262l-119 404l-120 -404h239zM390 879l-146 -95l-13 18l140 105z" />
    <glyph glyph-name="Acircumflex" unicode="&#xc2;" horiz-adv-x="518" 
d="M488 0h-32l-69 234h-256l-69 -234h-33l225 742h11zM378 262l-119 404l-120 -404h239zM362 792h-35l-69 78l-66 -78h-36l95 109h15z" />
    <glyph glyph-name="Atilde" unicode="&#xc3;" horiz-adv-x="518" 
d="M488 0h-32l-69 234h-256l-69 -234h-33l225 742h11zM378 262l-119 404l-120 -404h239zM378 842q-36 -40 -72 -40q-19 1 -49 17q-36 19 -46 19q-24 1 -53 -31l-18 20q37 41 72 40q21 0 49 -17q34 -19 46 -19q23 -1 53 32z" />
    <glyph glyph-name="Adieresis" unicode="&#xc4;" horiz-adv-x="518" 
d="M488 0h-32l-69 234h-256l-69 -234h-33l225 742h11zM378 262l-119 404l-120 -404h239zM353 832q0 -12 -8.5 -21t-20.5 -9t-20.5 9t-8.5 21t8.5 20.5t20.5 8.5t20.5 -8.5t8.5 -20.5zM224 832q0 -12 -8.5 -21t-20.5 -9t-20.5 9t-8.5 21t8.5 20.5t20.5 8.5t20.5 -8.5
t8.5 -20.5z" />
    <glyph glyph-name="Aring" unicode="&#xc5;" horiz-adv-x="518" 
d="M340 784q0 -29 -18 -51.5t-47 -28.5l213 -704h-32l-71 234h-252l-71 -234h-33l215 704q-29 6 -47 28.5t-18 51.5q0 33 23 57t58 24q34 0 57 -24t23 -57zM376 262l-117 394l-118 -394h235zM315 784q0 25 -15 42t-40 17t-40 -17t-15 -42t15 -42t40 -17t40 17t15 42z" />
    <glyph glyph-name="AE" unicode="&#xc6;" horiz-adv-x="761" 
d="M719 0h-300v234h-228l-125 -234h-36l390 733h299v-29h-268v-316h245v-29h-245v-330h268v-29zM419 262v400l-213 -400h213z" />
    <glyph glyph-name="Ccedilla" unicode="&#xc7;" horiz-adv-x="519" 
d="M377 -129q0 -29 -22.5 -49t-61.5 -20q-38 0 -84 27l12 24q43 -24 74 -24q25 0 38.5 11t13.5 30q0 49 -89 59l-2 4l16 62q-102 14 -164 110t-62 259q0 177 74.5 278t188.5 101q91 0 173 -64l-17 -25q-78 60 -156 60q-98 0 -164.5 -94.5t-66.5 -255.5q0 -160 66 -252
t165 -92q75 0 155 59l17 -22q-84 -65 -174 -65h-7l-11 -42q43 -9 65.5 -30t22.5 -49z" />
    <glyph glyph-name="Egrave" unicode="&#xc8;" horiz-adv-x="414" 
d="M372 0h-300v733h300v-29h-268v-316h246v-29h-246v-330h268v-29zM249 797l-13 -18l-146 95l19 28z" />
    <glyph glyph-name="Eacute" unicode="&#xc9;" horiz-adv-x="414" 
d="M352 874l-146 -95l-13 18l140 105zM372 0h-300v733h300v-29h-268v-316h246v-29h-246v-330h268v-29z" />
    <glyph glyph-name="Ecircumflex" unicode="&#xca;" horiz-adv-x="414" 
d="M324 787h-35l-69 78l-66 -78h-36l95 109h15zM372 0h-300v733h300v-29h-268v-316h246v-29h-246v-330h268v-29z" />
    <glyph glyph-name="Edieresis" unicode="&#xcb;" horiz-adv-x="414" 
d="M315 827q0 -12 -8.5 -21t-20.5 -9t-20.5 9t-8.5 21t8.5 20.5t20.5 8.5t20.5 -8.5t8.5 -20.5zM186 827q0 -12 -8.5 -21t-20.5 -9t-20.5 9t-8.5 21t8.5 20.5t20.5 8.5t20.5 -8.5t8.5 -20.5zM372 0h-300v733h300v-29h-268v-316h246v-29h-246v-330h268v-29z" />
    <glyph glyph-name="Igrave" unicode="&#xcc;" horiz-adv-x="183" 
d="M107 0h-32v733h32v-733zM118 797l-13 -18l-146 95l19 28z" />
    <glyph glyph-name="Iacute" unicode="&#xcd;" horiz-adv-x="183" 
d="M107 0h-32v733h32v-733zM222 874l-146 -95l-13 18l140 105z" />
    <glyph glyph-name="Icircumflex" unicode="&#xce;" horiz-adv-x="183" 
d="M107 0h-32v733h32v-733zM194 787h-35l-69 78l-66 -78h-36l95 109h15z" />
    <glyph glyph-name="Idieresis" unicode="&#xcf;" horiz-adv-x="183" 
d="M107 0h-32v733h32v-733zM185 827q0 -12 -8.5 -21t-20.5 -9t-20.5 9t-8.5 21t8.5 20.5t20.5 8.5t20.5 -8.5t8.5 -20.5zM56 827q0 -12 -8.5 -21t-20.5 -9t-20.5 9t-8.5 21t8.5 20.5t20.5 8.5t20.5 -8.5t8.5 -20.5z" />
    <glyph glyph-name="Eth" unicode="&#xd0;" horiz-adv-x="559" 
d="M515 370q0 -168 -83.5 -273t-227.5 -105q-54 0 -110 9v357h-56v29h56v345q44 8 109 8q145 0 228.5 -106.5t83.5 -263.5zM482 370q0 146 -76 244t-204 98q-44 0 -76 -5v-320h129v-29h-129v-332q38 -6 76 -6q129 0 204.5 96t75.5 254z" />
    <glyph glyph-name="Ntilde" unicode="&#xd1;" horiz-adv-x="538" 
d="M466 -3l-12 -1l-352 646v-642h-30v736l13 1l351 -646v642h30v-736zM387 832q-36 -40 -72 -40q-19 1 -49 17q-36 19 -46 19q-24 1 -53 -31l-18 20q37 41 72 40q21 0 49 -17q34 -19 46 -19q23 -1 53 32z" />
    <glyph glyph-name="Ograve" unicode="&#xd2;" horiz-adv-x="589" 
d="M544 367q0 -162 -69 -268.5t-179 -106.5q-111 0 -180.5 106.5t-69.5 268.5q0 161 70 267.5t180 106.5t179 -106t69 -268zM512 367q0 150 -61 248t-155 98q-95 0 -156.5 -98t-61.5 -248q0 -151 61.5 -249t156.5 -98q94 0 155 98t61 249zM322 802l-13 -18l-146 95l19 28z
" />
    <glyph glyph-name="Oacute" unicode="&#xd3;" horiz-adv-x="589" 
d="M425 879l-146 -95l-13 18l140 105zM544 367q0 -162 -69 -268.5t-179 -106.5q-111 0 -180.5 106.5t-69.5 268.5q0 161 70 267.5t180 106.5t179 -106t69 -268zM512 367q0 150 -61 248t-155 98q-95 0 -156.5 -98t-61.5 -248q0 -151 61.5 -249t156.5 -98q94 0 155 98t61 249z
" />
    <glyph glyph-name="Ocircumflex" unicode="&#xd4;" horiz-adv-x="589" 
d="M397 792h-35l-69 78l-66 -78h-36l95 109h15zM544 367q0 -162 -69 -268.5t-179 -106.5q-111 0 -180.5 106.5t-69.5 268.5q0 161 70 267.5t180 106.5t179 -106t69 -268zM512 367q0 150 -61 248t-155 98q-95 0 -156.5 -98t-61.5 -248q0 -151 61.5 -249t156.5 -98
q94 0 155 98t61 249z" />
    <glyph glyph-name="Otilde" unicode="&#xd5;" horiz-adv-x="589" 
d="M544 367q0 -162 -69 -268.5t-179 -106.5q-111 0 -180.5 106.5t-69.5 268.5q0 161 70 267.5t180 106.5t179 -106t69 -268zM512 367q0 150 -61 248t-155 98q-95 0 -156.5 -98t-61.5 -248q0 -151 61.5 -249t156.5 -98q94 0 155 98t61 249zM414 842q-36 -40 -72 -40
q-19 1 -49 17q-36 19 -46 19q-24 1 -53 -31l-18 20q37 41 72 40q21 0 49 -17q34 -19 46 -19q23 -1 53 32z" />
    <glyph glyph-name="Odieresis" unicode="&#xd6;" horiz-adv-x="589" 
d="M389 832q0 -12 -8.5 -21t-20.5 -9t-20.5 9t-8.5 21t8.5 20.5t20.5 8.5t20.5 -8.5t8.5 -20.5zM260 832q0 -12 -8.5 -21t-20.5 -9t-20.5 9t-8.5 21t8.5 20.5t20.5 8.5t20.5 -8.5t8.5 -20.5zM544 367q0 -162 -69 -268.5t-179 -106.5q-111 0 -180.5 106.5t-69.5 268.5
q0 161 70 267.5t180 106.5t179 -106t69 -268zM512 367q0 150 -61 248t-155 98q-95 0 -156.5 -98t-61.5 -248q0 -151 61.5 -249t156.5 -98q94 0 155 98t61 249z" />
    <glyph glyph-name="multiply" unicode="&#xd7;" horiz-adv-x="351" 
d="M49 435l20 20l106 -107l107 107l20 -20l-107 -107l107 -106l-20 -20l-107 106l-106 -106l-20 20l106 106z" />
    <glyph glyph-name="Oslash" unicode="&#xd8;" horiz-adv-x="589" 
d="M544 367q0 -162 -69 -268.5t-179 -106.5q-107 0 -177 102l-70 -101l-22 15q2 3 6 8.5t14 20.5l19 28.5l18 27t14 21.5l6 8q-58 102 -58 245q0 161 70 267.5t180 106.5q104 0 175 -101l71 102l21 -16q-62 -99 -77 -114q58 -102 58 -245zM512 367q0 120 -47 212l-326 -454
q60 -105 157 -105q94 0 155 98t61 249zM451 609q-61 104 -155 104q-95 0 -156.5 -98t-61.5 -248q0 -123 47 -212z" />
    <glyph glyph-name="Ugrave" unicode="&#xd9;" horiz-adv-x="529" 
d="M460 216q0 -108 -52 -165.5t-144 -57.5q-93 0 -144 56.5t-51 166.5v517h32v-522q0 -90 43 -140t121 -50q77 0 120.5 50.5t43.5 141.5v520h31v-517zM292 792l-13 -18l-146 95l19 28z" />
    <glyph glyph-name="Uacute" unicode="&#xda;" horiz-adv-x="529" 
d="M460 216q0 -108 -52 -165.5t-144 -57.5q-93 0 -144 56.5t-51 166.5v517h32v-522q0 -90 43 -140t121 -50q77 0 120.5 50.5t43.5 141.5v520h31v-517zM394 869l-146 -95l-13 18l140 105z" />
    <glyph glyph-name="Ucircumflex" unicode="&#xdb;" horiz-adv-x="529" 
d="M460 216q0 -108 -52 -165.5t-144 -57.5q-93 0 -144 56.5t-51 166.5v517h32v-522q0 -90 43 -140t121 -50q77 0 120.5 50.5t43.5 141.5v520h31v-517zM366 782h-35l-69 78l-66 -78h-36l95 109h15z" />
    <glyph glyph-name="Udieresis" unicode="&#xdc;" horiz-adv-x="529" 
d="M460 216q0 -108 -52 -165.5t-144 -57.5q-93 0 -144 56.5t-51 166.5v517h32v-522q0 -90 43 -140t121 -50q77 0 120.5 50.5t43.5 141.5v520h31v-517zM358 822q0 -12 -8.5 -21t-20.5 -9t-20.5 9t-8.5 21t8.5 20.5t20.5 8.5t20.5 -8.5t8.5 -20.5zM229 822q0 -12 -8.5 -21
t-20.5 -9t-20.5 9t-8.5 21t8.5 20.5t20.5 8.5t20.5 -8.5t8.5 -20.5z" />
    <glyph glyph-name="Yacute" unicode="&#xdd;" horiz-adv-x="448" 
d="M428 733l-188 -413v-320h-32v319l-188 414h35l170 -379l168 379h35zM354 869l-146 -95l-13 18l140 105z" />
    <glyph glyph-name="Thorn" unicode="&#xde;" horiz-adv-x="428" 
d="M396 383q0 -106 -61 -173t-162 -67q-37 0 -69 5v-148h-32v733h32v-116q30 3 64 3q111 0 169.5 -67.5t58.5 -169.5zM364 383q0 88 -51 148t-146 60q-33 0 -63 -3v-411q40 -6 69 -6q87 0 139 59.5t52 152.5z" />
    <glyph glyph-name="germandbls" unicode="&#xdf;" horiz-adv-x="355" 
d="M321 424l-120 -217q56 -3 93.5 -41.5t37.5 -101.5q0 -68 -42.5 -113t-110.5 -45q-24 0 -41 5l3 27q18 -4 37 -4q55 0 89.5 35.5t34.5 94.5q0 55 -35 87t-85 32q-17 0 -24 -2q0 1 -2 4l-1 3l120 213h-186v-401h-31v602q0 70 29 104t76 34q31 0 56 -9l-7 -28q-23 9 -50 9
q-73 0 -73 -109v-173h230z" />
    <glyph glyph-name="agrave" unicode="&#xe0;" horiz-adv-x="340" 
d="M287 0h-30v46q-39 -55 -101 -55q-54 0 -89.5 36.5t-35.5 97.5q0 63 36.5 100.5t91.5 37.5q49 0 97 -34v79q0 103 -97 103q-42 0 -87 -21l-9 27q47 22 99 22q125 0 125 -126v-313zM256 78v125q-47 33 -96 33q-43 0 -70.5 -29t-27.5 -79q0 -52 26 -81t70 -29q58 0 98 60z
M198 496l-13 -18l-146 95l19 28z" />
    <glyph glyph-name="aacute" unicode="&#xe1;" horiz-adv-x="340" 
d="M287 0h-30v46q-39 -55 -101 -55q-54 0 -89.5 36.5t-35.5 97.5q0 63 36.5 100.5t91.5 37.5q49 0 97 -34v79q0 103 -97 103q-42 0 -87 -21l-9 27q47 22 99 22q125 0 125 -126v-313zM256 78v125q-47 33 -96 33q-43 0 -70.5 -29t-27.5 -79q0 -52 26 -81t70 -29q58 0 98 60z
M300 573l-146 -95l-13 18l140 105z" />
    <glyph glyph-name="acircumflex" unicode="&#xe2;" horiz-adv-x="340" 
d="M287 0h-30v46q-39 -55 -101 -55q-54 0 -89.5 36.5t-35.5 97.5q0 63 36.5 100.5t91.5 37.5q49 0 97 -34v79q0 103 -97 103q-42 0 -87 -21l-9 27q47 22 99 22q125 0 125 -126v-313zM256 78v125q-47 33 -96 33q-43 0 -70.5 -29t-27.5 -79q0 -52 26 -81t70 -29q58 0 98 60z
M273 486h-35l-69 78l-66 -78h-36l95 109h15z" />
    <glyph glyph-name="atilde" unicode="&#xe3;" horiz-adv-x="340" 
d="M287 0h-30v46q-39 -55 -101 -55q-54 0 -89.5 36.5t-35.5 97.5q0 63 36.5 100.5t91.5 37.5q49 0 97 -34v79q0 103 -97 103q-42 0 -87 -21l-9 27q47 22 99 22q125 0 125 -126v-313zM256 78v125q-47 33 -96 33q-43 0 -70.5 -29t-27.5 -79q0 -52 26 -81t70 -29q58 0 98 60z
M290 536q-36 -40 -72 -40q-19 1 -49 17q-36 19 -46 19q-24 1 -53 -31l-18 20q37 41 72 40q21 0 49 -17q34 -19 46 -19q23 -1 53 32z" />
    <glyph glyph-name="adieresis" unicode="&#xe4;" horiz-adv-x="340" 
d="M287 0h-30v46q-39 -55 -101 -55q-54 0 -89.5 36.5t-35.5 97.5q0 63 36.5 100.5t91.5 37.5q49 0 97 -34v79q0 103 -97 103q-42 0 -87 -21l-9 27q47 22 99 22q125 0 125 -126v-313zM256 78v125q-47 33 -96 33q-43 0 -70.5 -29t-27.5 -79q0 -52 26 -81t70 -29q58 0 98 60z
M265 526q0 -12 -8.5 -21t-20.5 -9t-20.5 9t-8.5 21t8.5 20.5t20.5 8.5t20.5 -8.5t8.5 -20.5zM136 526q0 -12 -8.5 -21t-20.5 -9t-20.5 9t-8.5 21t8.5 20.5t20.5 8.5t20.5 -8.5t8.5 -20.5z" />
    <glyph glyph-name="aring" unicode="&#xe5;" horiz-adv-x="340" 
d="M287 0h-30v46q-39 -55 -101 -55q-54 0 -89.5 36.5t-35.5 97.5q0 63 36.5 100.5t91.5 37.5q49 0 97 -34v79q0 103 -97 103q-42 0 -87 -21l-9 27q47 22 99 22q125 0 125 -126v-313zM256 78v125q-47 33 -96 33q-43 0 -70.5 -29t-27.5 -79q0 -52 26 -81t70 -29q58 0 98 60z
M252 565q0 -32 -23 -56.5t-57 -24.5q-35 0 -58 24t-23 57t23 57t58 24q34 0 57 -24t23 -57zM227 565q0 25 -15 42t-40 17t-40 -17t-15 -42q0 -24 15 -41.5t40 -17.5t40 17.5t15 41.5z" />
    <glyph glyph-name="ae" unicode="&#xe6;" horiz-adv-x="574" 
d="M257 225v83q0 103 -97 103q-40 0 -87 -21l-8 27q47 22 98 22q103 0 120 -93q36 93 122 93q65 0 100.5 -56t35.5 -148q0 -20 -1 -26h-252q1 -88 35.5 -138.5t99.5 -50.5q48 0 91 27q0 -1 1 -2t2.5 -4.5t2.5 -6t2.5 -5.5l2.5 -5l1 -1q-47 -31 -104 -31q-114 0 -147 118
q-12 -57 -44 -88t-80 -31q-52 0 -85.5 36.5t-33.5 97.5q0 63 36.5 100.5t92.5 37.5q48 0 96 -38zM510 236q-2 78 -29 126.5t-78 48.5q-48 0 -79 -48t-36 -127h222zM258 197q-48 39 -96 39q-44 0 -71.5 -29t-27.5 -79q0 -52 24.5 -81t65.5 -29q47 0 75 49t30 130z" />
    <glyph glyph-name="ccedilla" unicode="&#xe7;" horiz-adv-x="322" 
d="M272 -129q0 -29 -22.5 -49t-61.5 -20q-38 0 -84 27l12 24q43 -24 74 -24q25 0 38.5 11t13.5 30q0 49 -89 59l-2 4l16 62q-62 13 -98 72.5t-36 145.5q0 97 45 161t120 64q55 0 104 -38l-17 -24q-45 33 -88 33q-61 0 -97 -56t-36 -139t36 -138.5t98 -55.5q41 0 87 33
l15 -23q-50 -38 -103 -38h-2l-11 -42q43 -9 65.5 -30t22.5 -49z" />
    <glyph glyph-name="egrave" unicode="&#xe8;" horiz-adv-x="352" 
d="M318 232v-23h-253q1 -88 35.5 -138.5t99.5 -50.5q48 0 91 27q0 -1 1 -2t2.5 -4.5t2.5 -6t2.5 -5.5l2.5 -5l1 -1q-47 -31 -104 -31q-79 0 -122.5 59.5t-43.5 162.5q0 101 41.5 163t107.5 62q64 0 100 -57t36 -150zM65 236h222q-2 78 -29 126.5t-78 48.5q-48 0 -79 -48
t-36 -127zM208 496l-13 -18l-146 95l19 28z" />
    <glyph glyph-name="eacute" unicode="&#xe9;" horiz-adv-x="352" 
d="M318 232v-23h-253q1 -88 35.5 -138.5t99.5 -50.5q48 0 91 27q0 -1 1 -2t2.5 -4.5t2.5 -6t2.5 -5.5l2.5 -5l1 -1q-47 -31 -104 -31q-79 0 -122.5 59.5t-43.5 162.5q0 101 41.5 163t107.5 62q64 0 100 -57t36 -150zM65 236h222q-2 78 -29 126.5t-78 48.5q-48 0 -79 -48
t-36 -127zM311 573l-146 -95l-13 18l140 105z" />
    <glyph glyph-name="ecircumflex" unicode="&#xea;" horiz-adv-x="352" 
d="M318 232v-23h-253q1 -88 35.5 -138.5t99.5 -50.5q48 0 91 27q0 -1 1 -2t2.5 -4.5t2.5 -6t2.5 -5.5l2.5 -5l1 -1q-47 -31 -104 -31q-79 0 -122.5 59.5t-43.5 162.5q0 101 41.5 163t107.5 62q64 0 100 -57t36 -150zM65 236h222q-2 78 -29 126.5t-78 48.5q-48 0 -79 -48
t-36 -127zM284 486h-35l-69 78l-66 -78h-36l95 109h15z" />
    <glyph glyph-name="edieresis" unicode="&#xeb;" horiz-adv-x="352" 
d="M318 232v-23h-253q1 -88 35.5 -138.5t99.5 -50.5q48 0 91 27q0 -1 1 -2t2.5 -4.5t2.5 -6t2.5 -5.5l2.5 -5l1 -1q-47 -31 -104 -31q-79 0 -122.5 59.5t-43.5 162.5q0 101 41.5 163t107.5 62q64 0 100 -57t36 -150zM65 236h222q-2 78 -29 126.5t-78 48.5q-48 0 -79 -48
t-36 -127zM275 526q0 -12 -8.5 -21t-20.5 -9t-20.5 9t-8.5 21t8.5 20.5t20.5 8.5t20.5 -8.5t8.5 -20.5zM146 526q0 -12 -8.5 -21t-20.5 -9t-20.5 9t-8.5 21t8.5 20.5t20.5 8.5t20.5 -8.5t8.5 -20.5z" />
    <glyph glyph-name="igrave" unicode="&#xec;" horiz-adv-x="149" 
d="M90 0h-31v430h31v-430zM102 496l-13 -18l-146 95l19 28z" />
    <glyph glyph-name="iacute" unicode="&#xed;" horiz-adv-x="149" 
d="M205 573l-146 -95l-13 18l140 105zM90 0h-31v430h31v-430z" />
    <glyph glyph-name="icircumflex" unicode="&#xee;" horiz-adv-x="149" 
d="M177 486h-35l-69 78l-66 -78h-36l95 109h15zM90 0h-31v430h31v-430z" />
    <glyph glyph-name="idieresis" unicode="&#xef;" horiz-adv-x="149" 
d="M168 526q0 -12 -8.5 -21t-20.5 -9t-20.5 9t-8.5 21t8.5 20.5t20.5 8.5t20.5 -8.5t8.5 -20.5zM39 526q0 -12 -8.5 -21t-20.5 -9t-20.5 9t-8.5 21t8.5 20.5t20.5 8.5t20.5 -8.5t8.5 -20.5zM90 0h-31v430h31v-430z" />
    <glyph glyph-name="eth" unicode="&#xf0;" horiz-adv-x="379" 
d="M97 560l-17 20l73 63q-39 37 -84 69l16 22q52 -37 88 -73l67 57l18 -21l-66 -56q154 -163 154 -416q0 -106 -43 -170t-114 -64t-113 62t-42 163q0 96 41.5 159.5t106.5 63.5q81 0 124 -90q-26 157 -135 274zM315 215q0 84 -37 140t-95 56q-52 0 -85 -57t-33 -138
q0 -84 34 -140.5t90 -56.5t91 57.5t35 138.5z" />
    <glyph glyph-name="ntilde" unicode="&#xf1;" 
d="M320 0h-30v317q0 93 -78 93q-62 0 -125 -81v-329h-31v430h30v-68q60 76 129 76q52 0 78.5 -32t26.5 -86v-320zM307 536q-36 -40 -72 -40q-19 1 -49 17q-36 19 -46 19q-24 1 -53 -31l-18 20q37 41 72 40q21 0 49 -17q34 -19 46 -19q23 -1 53 32z" />
    <glyph glyph-name="ograve" unicode="&#xf2;" horiz-adv-x="380" 
d="M347 216q0 -98 -44 -161t-113 -63q-70 0 -113 61t-43 160q0 98 43.5 161.5t112.5 63.5q70 0 113.5 -61.5t43.5 -160.5zM316 215q0 84 -34.5 139.5t-91.5 55.5q-55 0 -90 -57.5t-35 -138.5q0 -83 34.5 -138.5t90.5 -55.5t91 57t35 138zM218 496l-13 -18l-146 95l19 28z
" />
    <glyph glyph-name="oacute" unicode="&#xf3;" horiz-adv-x="380" 
d="M321 573l-146 -95l-13 18l140 105zM347 216q0 -98 -44 -161t-113 -63q-70 0 -113 61t-43 160q0 98 43.5 161.5t112.5 63.5q70 0 113.5 -61.5t43.5 -160.5zM316 215q0 84 -34.5 139.5t-91.5 55.5q-55 0 -90 -57.5t-35 -138.5q0 -83 34.5 -138.5t90.5 -55.5t91 57t35 138z
" />
    <glyph glyph-name="ocircumflex" unicode="&#xf4;" horiz-adv-x="380" 
d="M294 486h-35l-69 78l-66 -78h-36l95 109h15zM347 216q0 -98 -44 -161t-113 -63q-70 0 -113 61t-43 160q0 98 43.5 161.5t112.5 63.5q70 0 113.5 -61.5t43.5 -160.5zM316 215q0 84 -34.5 139.5t-91.5 55.5q-55 0 -90 -57.5t-35 -138.5q0 -83 34.5 -138.5t90.5 -55.5t91 57
t35 138z" />
    <glyph glyph-name="otilde" unicode="&#xf5;" horiz-adv-x="380" 
d="M347 216q0 -98 -44 -161t-113 -63q-70 0 -113 61t-43 160q0 98 43.5 161.5t112.5 63.5q70 0 113.5 -61.5t43.5 -160.5zM316 215q0 84 -34.5 139.5t-91.5 55.5q-55 0 -90 -57.5t-35 -138.5q0 -83 34.5 -138.5t90.5 -55.5t91 57t35 138zM310 536q-36 -40 -72 -40
q-19 1 -49 17q-36 19 -46 19q-24 1 -53 -31l-18 20q37 41 72 40q21 0 49 -17q34 -19 46 -19q23 -1 53 32z" />
    <glyph glyph-name="odieresis" unicode="&#xf6;" horiz-adv-x="380" 
d="M285 526q0 -12 -8.5 -21t-20.5 -9t-20.5 9t-8.5 21t8.5 20.5t20.5 8.5t20.5 -8.5t8.5 -20.5zM156 526q0 -12 -8.5 -21t-20.5 -9t-20.5 9t-8.5 21t8.5 20.5t20.5 8.5t20.5 -8.5t8.5 -20.5zM347 216q0 -98 -44 -161t-113 -63q-70 0 -113 61t-43 160q0 98 43.5 161.5
t112.5 63.5q70 0 113.5 -61.5t43.5 -160.5zM316 215q0 84 -34.5 139.5t-91.5 55.5q-55 0 -90 -57.5t-35 -138.5q0 -83 34.5 -138.5t90.5 -55.5t91 57t35 138z" />
    <glyph glyph-name="divide" unicode="&#xf7;" horiz-adv-x="375" 
d="M41 314v29h294v-29h-294zM161 458q0 11 8 19.5t19 8.5t19 -8.5t8 -19.5t-8 -19.5t-19 -8.5t-19 8.5t-8 19.5zM161 199q0 11 8 19.5t19 8.5t19 -8.5t8 -19.5t-8 -19.5t-19 -8.5t-19 8.5t-8 19.5z" />
    <glyph glyph-name="oslash" unicode="&#xf8;" horiz-adv-x="380" 
d="M364 439l-51 -75q34 -59 34 -148q0 -99 -44 -162t-113 -63q-64 0 -106 50l-46 -64l-22 14l52 74q-34 59 -34 148q0 99 43.5 162.5t112.5 63.5q65 0 106 -51q5 4 16.5 20.5t21.5 31.5l9 14zM87 95l191 266q-34 50 -88 50q-56 0 -90.5 -57t-34.5 -140q0 -71 22 -119z
M293 333l-190 -266q34 -48 87 -48q56 0 91 57t35 139q0 64 -23 118z" />
    <glyph glyph-name="ugrave" unicode="&#xf9;" 
d="M317 0h-29v68q-62 -76 -129 -76q-52 0 -79 32t-27 86v320h31v-318q0 -92 78 -92q62 0 125 80v330h30v-430zM212 496l-13 -18l-146 95l19 28z" />
    <glyph glyph-name="uacute" unicode="&#xfa;" 
d="M315 573l-146 -95l-13 18l140 105zM317 0h-29v68q-62 -76 -129 -76q-52 0 -79 32t-27 86v320h31v-318q0 -92 78 -92q62 0 125 80v330h30v-430z" />
    <glyph glyph-name="ucircumflex" unicode="&#xfb;" 
d="M288 486h-35l-69 78l-66 -78h-36l95 109h15zM317 0h-29v68q-62 -76 -129 -76q-52 0 -79 32t-27 86v320h31v-318q0 -92 78 -92q62 0 125 80v330h30v-430z" />
    <glyph glyph-name="udieresis" unicode="&#xfc;" 
d="M279 526q0 -12 -8.5 -21t-20.5 -9t-20.5 9t-8.5 21t8.5 20.5t20.5 8.5t20.5 -8.5t8.5 -20.5zM150 526q0 -12 -8.5 -21t-20.5 -9t-20.5 9t-8.5 21t8.5 20.5t20.5 8.5t20.5 -8.5t8.5 -20.5zM317 0h-29v68q-62 -76 -129 -76q-52 0 -79 32t-27 86v320h31v-318q0 -92 78 -92
q62 0 125 80v330h30v-430z" />
    <glyph glyph-name="yacute" unicode="&#xfd;" horiz-adv-x="329" 
d="M315 430l-213 -629h-30l78 224l-138 405h33l120 -363l118 363h32zM295 573l-146 -95l-13 18l140 105z" />
    <glyph glyph-name="thorn" unicode="&#xfe;" horiz-adv-x="388" 
d="M355 217q0 -103 -45.5 -163.5t-113.5 -60.5q-57 0 -109 52v-244h-31v932h30v-353q51 57 114 57q66 0 110.5 -59t44.5 -161zM323 217q0 91 -35.5 141.5t-89.5 50.5q-61 0 -111 -63v-266q55 -59 109 -59q55 0 91 53t36 143z" />
    <glyph glyph-name="ydieresis" unicode="&#xff;" horiz-adv-x="329" 
d="M315 430l-213 -629h-30l78 224l-138 405h33l120 -363l118 363h32zM131 526q0 -12 -8.5 -21t-20.5 -9t-20.5 9t-8.5 21t8.5 20.5t20.5 8.5t20.5 -8.5t8.5 -20.5zM260 526q0 -12 -8.5 -21t-20.5 -9t-20.5 9t-8.5 21t8.5 20.5t20.5 8.5t20.5 -8.5t8.5 -20.5z" />
    <glyph glyph-name="Amacron" unicode="&#x100;" horiz-adv-x="518" 
d="M488 0h-32l-69 234h-256l-69 -234h-33l225 742h11zM378 262l-119 404l-120 -404h239zM373 814h-227v29h227v-29z" />
    <glyph glyph-name="amacron" unicode="&#x101;" horiz-adv-x="340" 
d="M287 0h-30v46q-39 -55 -101 -55q-54 0 -89.5 36.5t-35.5 97.5q0 63 36.5 100.5t91.5 37.5q49 0 97 -34v79q0 103 -97 103q-42 0 -87 -21l-9 27q47 22 99 22q125 0 125 -126v-313zM256 78v125q-47 33 -96 33q-43 0 -70.5 -29t-27.5 -79q0 -52 26 -81t70 -29q58 0 98 60z
M285 508h-227v29h227v-29z" />
    <glyph glyph-name="Abreve" unicode="&#x102;" horiz-adv-x="518" 
d="M488 0h-32l-69 234h-256l-69 -234h-33l225 742h11zM378 262l-119 404l-120 -404h239zM359 897q0 -43 -26.5 -72t-73.5 -29q-45 0 -72 29.5t-28 71.5l28 3q1 -36 19.5 -58t52.5 -22t53 22t20 58z" />
    <glyph glyph-name="abreve" unicode="&#x103;" horiz-adv-x="340" 
d="M287 0h-30v46q-39 -55 -101 -55q-54 0 -89.5 36.5t-35.5 97.5q0 63 36.5 100.5t91.5 37.5q49 0 97 -34v79q0 103 -97 103q-42 0 -87 -21l-9 27q47 22 99 22q125 0 125 -126v-313zM256 78v125q-47 33 -96 33q-43 0 -70.5 -29t-27.5 -79q0 -52 26 -81t70 -29q58 0 98 60z
M271 591q0 -43 -26.5 -72t-73.5 -29q-45 0 -72 29.5t-28 71.5l28 3q1 -36 19.5 -58t52.5 -22t53 22t20 58z" />
    <glyph glyph-name="Aogonek" unicode="&#x104;" horiz-adv-x="518" 
d="M507 -168q-25 -34 -63 -34q-28 0 -45 18.5t-17 49.5q0 58 73 137l-68 231h-256l-69 -234h-33l225 742h11l223 -742q-77 -77 -77 -132q0 -20 10 -31.5t26 -11.5q24 0 44 25zM378 262l-119 404l-120 -404h239z" />
    <glyph glyph-name="aogonek" unicode="&#x105;" horiz-adv-x="340" 
d="M306 -168q-26 -34 -63 -34q-28 0 -45 18.5t-17 49.5q0 60 76 140v40q-39 -55 -101 -55q-54 0 -89.5 36.5t-35.5 97.5q0 63 36.5 100.5t91.5 37.5q49 0 97 -34v79q0 103 -97 103q-42 0 -87 -21l-9 27q47 22 99 22q125 0 125 -126v-313q-77 -77 -77 -132q0 -20 10 -31.5
t26 -11.5q24 0 44 25zM256 78v125q-47 33 -96 33q-43 0 -70.5 -29t-27.5 -79q0 -52 26 -81t70 -29q58 0 98 60z" />
    <glyph glyph-name="Cacute" unicode="&#x106;" horiz-adv-x="514" 
d="M431 879l-146 -95l-13 18l140 105zM481 57q-84 -65 -174 -65q-115 0 -188 97.5t-73 274.5t74.5 278t188.5 101q91 0 173 -64l-17 -25q-78 60 -156 60q-98 0 -164.5 -94.5t-66.5 -255.5q0 -160 66 -252t165 -92q75 0 155 59z" />
    <glyph glyph-name="cacute" unicode="&#x107;" horiz-adv-x="322" 
d="M318 573l-146 -95l-13 18l140 105zM300 30q-50 -38 -103 -38q-74 0 -119 62t-45 159t45 161t120 64q55 0 104 -38l-17 -24q-45 33 -88 33q-61 0 -97 -56t-36 -139t36 -138.5t98 -55.5q41 0 87 33z" />
    <glyph glyph-name="Cdotaccent" unicode="&#x10a;" horiz-adv-x="514" 
d="M481 57q-84 -65 -174 -65q-115 0 -188 97.5t-73 274.5t74.5 278t188.5 101q91 0 173 -64l-17 -25q-78 60 -156 60q-98 0 -164.5 -94.5t-66.5 -255.5q0 -160 66 -252t165 -92q75 0 155 59zM272 832q0 12 8 20.5t21 8.5q12 0 20 -8.5t8 -20.5t-8 -21t-20 -9t-20.5 9
t-8.5 21z" />
    <glyph glyph-name="cdotaccent" unicode="&#x10b;" horiz-adv-x="322" 
d="M300 30q-50 -38 -103 -38q-74 0 -119 62t-45 159t45 161t120 64q55 0 104 -38l-17 -24q-45 33 -88 33q-61 0 -97 -56t-36 -139t36 -138.5t98 -55.5q41 0 87 33zM160 526q0 12 8 20.5t21 8.5q12 0 20 -8.5t8 -20.5t-8 -21t-20 -9t-20.5 9t-8.5 21z" />
    <glyph glyph-name="Ccaron" unicode="&#x10c;" horiz-adv-x="514" 
d="M403 901l-95 -108h-15l-96 108h35l70 -77l66 77h35zM481 57q-84 -65 -174 -65q-115 0 -188 97.5t-73 274.5t74.5 278t188.5 101q91 0 173 -64l-17 -25q-78 60 -156 60q-98 0 -164.5 -94.5t-66.5 -255.5q0 -160 66 -252t165 -92q75 0 155 59z" />
    <glyph glyph-name="ccaron" unicode="&#x10d;" horiz-adv-x="322" 
d="M290 595l-95 -108h-15l-96 108h35l70 -77l66 77h35zM300 30q-50 -38 -103 -38q-74 0 -119 62t-45 159t45 161t120 64q55 0 104 -38l-17 -24q-45 33 -88 33q-61 0 -97 -56t-36 -139t36 -138.5t98 -55.5q41 0 87 33z" />
    <glyph glyph-name="Dcaron" unicode="&#x10e;" horiz-adv-x="537" 
d="M493 370q0 -167 -83.5 -272t-227.5 -105q-54 0 -110 9v730q44 8 109 8q145 0 228.5 -106.5t83.5 -263.5zM460 370q0 146 -76 243.5t-204 97.5q-44 0 -76 -5v-679q32 -5 76 -5q129 0 204.5 95t75.5 253zM347 896l-95 -108h-15l-96 108h35l70 -77l66 77h35z" />
    <glyph glyph-name="dcaron" unicode="&#x10f;" horiz-adv-x="388" 
d="M404 734l30 -4q0 -121 -67 -187l-13 11q50 62 50 180zM332 0h-31v49q-52 -56 -113 -56q-66 0 -110 59t-44 160q0 102 45.5 163.5t112.5 61.5q61 0 109 -55v351h31v-733zM301 84v263q-52 62 -109 62q-55 0 -91 -54t-36 -143q0 -90 36 -140.5t89 -50.5q61 0 111 63z" />
    <glyph glyph-name="Dcroat" unicode="&#x110;" horiz-adv-x="559" 
d="M515 370q0 -168 -83.5 -273t-227.5 -105q-54 0 -110 9v357h-56v29h56v345q44 8 109 8q145 0 228.5 -106.5t83.5 -263.5zM482 370q0 146 -76 244t-204 98q-44 0 -76 -5v-320h129v-29h-129v-332q38 -6 76 -6q129 0 204.5 96t75.5 254z" />
    <glyph glyph-name="dcroat" unicode="&#x111;" horiz-adv-x="388" 
d="M332 0h-31v49q-52 -56 -113 -56q-66 0 -110 59t-44 160q0 102 45.5 163.5t112.5 61.5q61 0 109 -55v198h-118v28h118v125h31v-125h51v-28h-51v-580zM301 84v263q-52 62 -109 62q-55 0 -91 -54t-36 -143q0 -90 36 -140.5t89 -50.5q61 0 111 63z" />
    <glyph glyph-name="Emacron" unicode="&#x112;" horiz-adv-x="414" 
d="M372 0h-300v733h300v-29h-268v-316h246v-29h-246v-330h268v-29zM335 809h-227v29h227v-29z" />
    <glyph glyph-name="emacron" unicode="&#x113;" horiz-adv-x="352" 
d="M318 232v-23h-253q1 -88 35.5 -138.5t99.5 -50.5q48 0 91 27q0 -1 1 -2t2.5 -4.5t2.5 -6t2.5 -5.5l2.5 -5l1 -1q-47 -31 -104 -31q-79 0 -122.5 59.5t-43.5 162.5q0 101 41.5 163t107.5 62q64 0 100 -57t36 -150zM65 236h222q-2 78 -29 126.5t-78 48.5q-48 0 -79 -48
t-36 -127zM295 508h-227v29h227v-29z" />
    <glyph glyph-name="Ebreve" unicode="&#x114;" horiz-adv-x="414" 
d="M372 0h-300v733h300v-29h-268v-316h246v-29h-246v-330h268v-29zM321 892q0 -43 -26.5 -72t-73.5 -29q-45 0 -72 29.5t-28 71.5l28 3q1 -36 19.5 -58t52.5 -22t53 22t20 58z" />
    <glyph glyph-name="ebreve" unicode="&#x115;" horiz-adv-x="352" 
d="M318 232v-23h-253q1 -88 35.5 -138.5t99.5 -50.5q48 0 91 27q0 -1 1 -2t2.5 -4.5t2.5 -6t2.5 -5.5l2.5 -5l1 -1q-47 -31 -104 -31q-79 0 -122.5 59.5t-43.5 162.5q0 101 41.5 163t107.5 62q64 0 100 -57t36 -150zM65 236h222q-2 78 -29 126.5t-78 48.5q-48 0 -79 -48
t-36 -127zM281 591q0 -43 -26.5 -72t-73.5 -29q-45 0 -72 29.5t-28 71.5l28 3q1 -36 19.5 -58t52.5 -22t53 22t20 58z" />
    <glyph glyph-name="Edotaccent" unicode="&#x116;" horiz-adv-x="414" 
d="M372 0h-300v733h300v-29h-268v-316h246v-29h-246v-330h268v-29zM193 827q0 12 8 20.5t21 8.5q12 0 20 -8.5t8 -20.5t-8 -21t-20 -9t-20.5 9t-8.5 21z" />
    <glyph glyph-name="edotaccent" unicode="&#x117;" horiz-adv-x="352" 
d="M318 232v-23h-253q1 -88 35.5 -138.5t99.5 -50.5q48 0 91 27q0 -1 1 -2t2.5 -4.5t2.5 -6t2.5 -5.5l2.5 -5l1 -1q-47 -31 -104 -31q-79 0 -122.5 59.5t-43.5 162.5q0 101 41.5 163t107.5 62q64 0 100 -57t36 -150zM65 236h222q-2 78 -29 126.5t-78 48.5q-48 0 -79 -48
t-36 -127zM153 526q0 12 8 20.5t21 8.5q12 0 20 -8.5t8 -20.5t-8 -21t-20 -9t-20.5 9t-8.5 21z" />
    <glyph glyph-name="Eogonek" unicode="&#x118;" horiz-adv-x="414" 
d="M372 0h-16q-77 -77 -77 -132q0 -20 10 -31.5t26 -11.5q24 0 44 25l16 -18q-25 -34 -63 -34q-28 0 -45 18.5t-17 49.5q0 57 70 134h-248v733h300v-29h-268v-316h246v-29h-246v-330h268v-29z" />
    <glyph glyph-name="eogonek" unicode="&#x119;" horiz-adv-x="352" 
d="M318 232v-23h-253q1 -88 35.5 -138.5t99.5 -50.5q48 0 91 27q0 -1 1 -2t2.5 -4.5t2.5 -6t2.5 -5.5l2.5 -5l1 -1q-94 -84 -94 -155q0 -20 10 -31.5t25 -11.5q26 0 45 25l15 -18q-25 -33 -62 -33q-28 0 -45 18t-17 49q0 63 63 132q-21 -6 -44 -6q-79 0 -122.5 59.5
t-43.5 162.5q0 101 41.5 163t107.5 62q64 0 100 -57t36 -150zM65 236h222q-2 78 -29 126.5t-78 48.5q-48 0 -79 -48t-36 -127z" />
    <glyph glyph-name="Ecaron" unicode="&#x11a;" horiz-adv-x="414" 
d="M324 896l-95 -108h-15l-96 108h35l70 -77l66 77h35zM372 0h-300v733h300v-29h-268v-316h246v-29h-246v-330h268v-29z" />
    <glyph glyph-name="ecaron" unicode="&#x11b;" horiz-adv-x="352" 
d="M318 232v-23h-253q1 -88 35.5 -138.5t99.5 -50.5q48 0 91 27q0 -1 1 -2t2.5 -4.5t2.5 -6t2.5 -5.5l2.5 -5l1 -1q-47 -31 -104 -31q-79 0 -122.5 59.5t-43.5 162.5q0 101 41.5 163t107.5 62q64 0 100 -57t36 -150zM65 236h222q-2 78 -29 126.5t-78 48.5q-48 0 -79 -48
t-36 -127zM284 595l-95 -108h-15l-96 108h35l70 -77l66 77h35z" />
    <glyph glyph-name="Gbreve" unicode="&#x11e;" horiz-adv-x="549" 
d="M304 356h187v-299q-70 -64 -175 -64q-118 0 -194 96.5t-76 275.5q0 178 75.5 278t193.5 100q91 0 175 -66l-18 -24q-76 61 -158 61q-102 0 -169 -93.5t-67 -255.5q0 -163 67 -254t173 -91q85 0 142 49v258h-156v29zM402 897q0 -43 -26.5 -72t-73.5 -29q-45 0 -72 29.5
t-28 71.5l28 3q1 -36 19.5 -58t52.5 -22t53 22t20 58z" />
    <glyph glyph-name="gbreve" unicode="&#x11f;" horiz-adv-x="388" 
d="M332 -66q0 -141 -129 -141q-58 0 -116 26l10 28q55 -26 107 -26q51 0 74 26.5t23 85.5v116q-50 -56 -113 -56q-66 0 -110 59t-44 160q0 102 45.5 163.5t112.5 61.5q60 0 110 -57v50h30v-496zM301 84v261q-52 64 -109 64q-55 0 -91 -54t-36 -143q0 -90 36 -140.5t89 -50.5
q61 0 111 63zM302 591q0 -43 -26.5 -72t-73.5 -29q-45 0 -72 29.5t-28 71.5l28 3q1 -36 19.5 -58t52.5 -22t53 22t20 58z" />
    <glyph glyph-name="Gdotaccent" unicode="&#x120;" horiz-adv-x="549" 
d="M304 356h187v-299q-70 -64 -175 -64q-118 0 -194 96.5t-76 275.5q0 178 75.5 278t193.5 100q91 0 175 -66l-18 -24q-76 61 -158 61q-102 0 -169 -93.5t-67 -255.5q0 -163 67 -254t173 -91q85 0 142 49v258h-156v29zM273 832q0 12 8 20.5t21 8.5q12 0 20 -8.5t8 -20.5
t-8 -21t-20 -9t-20.5 9t-8.5 21z" />
    <glyph glyph-name="gdotaccent" unicode="&#x121;" horiz-adv-x="388" 
d="M332 -66q0 -141 -129 -141q-58 0 -116 26l10 28q55 -26 107 -26q51 0 74 26.5t23 85.5v116q-50 -56 -113 -56q-66 0 -110 59t-44 160q0 102 45.5 163.5t112.5 61.5q60 0 110 -57v50h30v-496zM301 84v261q-52 64 -109 64q-55 0 -91 -54t-36 -143q0 -90 36 -140.5t89 -50.5
q61 0 111 63zM174 526q0 12 8 20.5t21 8.5q12 0 20 -8.5t8 -20.5t-8 -21t-20 -9t-20.5 9t-8.5 21z" />
    <glyph glyph-name="Gcommaaccent" unicode="&#x122;" horiz-adv-x="549" 
d="M338 -108q0 -30 -20 -60.5t-42 -45.5l-10 9q40 38 44 78q-36 5 -36 33q0 12 9 21t20 9q15 0 25 -12t10 -32zM304 356h187v-299q-70 -64 -175 -64q-118 0 -194 96.5t-76 275.5q0 178 75.5 278t193.5 100q91 0 175 -66l-18 -24q-76 61 -158 61q-102 0 -169 -93.5
t-67 -255.5q0 -163 67 -254t173 -91q85 0 142 49v258h-156v29z" />
    <glyph glyph-name="gcommaaccent" unicode="&#x123;" horiz-adv-x="388" 
d="M332 -66q0 -141 -129 -141q-58 0 -116 26l10 28q55 -26 107 -26q51 0 74 26.5t23 85.5v116q-50 -56 -113 -56q-66 0 -110 59t-44 160q0 102 45.5 163.5t112.5 61.5q60 0 110 -57v50h30v-496zM301 84v261q-52 64 -109 64q-55 0 -91 -54t-36 -143q0 -90 36 -140.5t89 -50.5
q61 0 111 63zM167 540q0 30 20 60.5t42 45.5l10 -9q-40 -38 -44 -78q36 -5 36 -33q0 -12 -9 -21t-20 -9q-15 0 -25 12t-10 32z" />
    <glyph glyph-name="Hbar" unicode="&#x126;" horiz-adv-x="525" 
d="M453 0h-32v360h-317v-360h-32v564h-62v28h62v141h32v-141h317v141h32v-141h62v-28h-62v-564zM104 389h317v175h-317v-175z" />
    <glyph glyph-name="hbar" unicode="&#x127;" horiz-adv-x="365" 
d="M316 0h-31v317q0 93 -78 93q-61 0 -124 -81v-329h-31v580h-51v28h51v125h31v-125h117v-28h-117v-217q61 75 128 75q52 0 78.5 -32t26.5 -86v-320z" />
    <glyph glyph-name="Imacron" unicode="&#x12a;" horiz-adv-x="183" 
d="M107 0h-32v733h32v-733zM205 809h-227v29h227v-29z" />
    <glyph glyph-name="imacron" unicode="&#x12b;" horiz-adv-x="149" 
d="M90 0h-31v430h31v-430zM189 508h-227v29h227v-29z" />
    <glyph glyph-name="Ibreve" unicode="&#x12c;" horiz-adv-x="183" 
d="M107 0h-32v733h32v-733zM191 892q0 -43 -26.5 -72t-73.5 -29q-45 0 -72 29.5t-28 71.5l28 3q1 -36 19.5 -58t52.5 -22t53 22t20 58z" />
    <glyph glyph-name="ibreve" unicode="&#x12d;" horiz-adv-x="149" 
d="M90 0h-31v430h31v-430zM175 591q0 -43 -26.5 -72t-73.5 -29q-45 0 -72 29.5t-28 71.5l28 3q1 -36 19.5 -58t52.5 -22t53 22t20 58z" />
    <glyph glyph-name="Iogonek" unicode="&#x12e;" horiz-adv-x="183" 
d="M143 -167q-25 -34 -63 -34q-27 0 -44 18.5t-17 51.5q0 56 56 132v732h32v-733q-59 -76 -59 -130q0 -21 9.5 -33t24.5 -12q27 0 46 25z" />
    <glyph glyph-name="iogonek" unicode="&#x12f;" horiz-adv-x="149" 
d="M126 -167q-26 -34 -63 -34q-28 0 -44.5 18.5t-16.5 51.5q0 56 57 134v427h31v-430q-60 -78 -60 -130q0 -21 10 -33t25 -12q26 0 46 25zM101 582q0 -11 -8 -19t-19 -8t-19 8t-8 19q0 12 8 20t19 8t19 -8t8 -20z" />
    <glyph glyph-name="Idotaccent" unicode="&#x130;" horiz-adv-x="183" 
d="M107 0h-32v733h32v-733zM63 827q0 12 8 20.5t21 8.5q12 0 20 -8.5t8 -20.5t-8 -21t-20 -9t-20.5 9t-8.5 21z" />
    <glyph glyph-name="dotlessi" unicode="&#x131;" horiz-adv-x="149" 
d="M90 0h-31v430h31v-430z" />
    <glyph glyph-name="Kcommaaccent" unicode="&#x136;" horiz-adv-x="439" 
d="M265 -98q0 -30 -20 -60.5t-42 -45.5l-10 9q40 38 44 78q-36 5 -36 33q0 12 9 21t20 9q15 0 25 -12t10 -32zM416 0h-40l-272 364v-364h-32v733h32v-347l264 347h39l-275 -357z" />
    <glyph glyph-name="kcommaaccent" unicode="&#x137;" horiz-adv-x="309" 
d="M206 -108q0 -30 -20 -60.5t-42 -45.5l-10 9q40 38 44 78q-36 5 -36 33q0 12 9 21t20 9q15 0 25 -12t10 -32zM307 0h-38l-182 216v-216h-31v733h31v-495l173 192h38l-184 -202z" />
    <glyph glyph-name="Lacute" unicode="&#x139;" horiz-adv-x="379" 
d="M236 874l-146 -95l-13 18l140 105zM373 0h-301v733h32v-705h269v-28z" />
    <glyph glyph-name="lacute" unicode="&#x13a;" horiz-adv-x="149" 
d="M205 874l-146 -95l-13 18l140 105zM90 0h-31v733h31v-733z" />
    <glyph glyph-name="Lcommaaccent" unicode="&#x13b;" horiz-adv-x="379" 
d="M258 -108q0 -30 -20 -60.5t-42 -45.5l-10 9q40 38 44 78q-36 5 -36 33q0 12 9 21t20 9q15 0 25 -12t10 -32zM373 0h-301v733h32v-705h269v-28z" />
    <glyph glyph-name="lcommaaccent" unicode="&#x13c;" horiz-adv-x="149" 
d="M110 -108q0 -30 -20 -60.5t-42 -45.5l-10 9q40 38 44 78q-36 5 -36 33q0 12 9 21t20 9q15 0 25 -12t10 -32zM90 0h-31v733h31v-733z" />
    <glyph glyph-name="Lcaron" unicode="&#x13d;" horiz-adv-x="379" 
d="M226 733l30 -4q0 -121 -67 -187l-13 11q50 63 50 180zM373 0h-301v733h32v-705h269v-28z" />
    <glyph glyph-name="lcaron" unicode="&#x13e;" horiz-adv-x="149" 
d="M163 734l30 -4q0 -121 -67 -187l-13 11q50 62 50 180zM90 0h-31v733h31v-733z" />
    <glyph glyph-name="Ldot" unicode="&#x13f;" horiz-adv-x="379" 
d="M373 0h-301v733h32v-705h269v-28zM249 367q0 -12 8.5 -21t20.5 -9t20 9t8 21t-8 20.5t-20 8.5q-13 0 -21 -8.5t-8 -20.5z" />
    <glyph glyph-name="ldot" unicode="&#x140;" horiz-adv-x="195" 
d="M90 0h-31v733h31v-733zM144 367q0 -12 8.5 -21t20.5 -9t20 9t8 21t-8 20.5t-20 8.5q-13 0 -21 -8.5t-8 -20.5z" />
    <glyph glyph-name="Lslash" unicode="&#x141;" horiz-adv-x="402" 
d="M396 0h-300v346l-64 -29v30l64 29v357h32v-343l108 50v-31l-108 -49v-332h268v-28z" />
    <glyph glyph-name="lslash" unicode="&#x142;" horiz-adv-x="172" 
d="M154 380l-53 -24v-356h-31v342l-52 -23v30l52 23v361h31v-346l53 23v-30z" />
    <glyph glyph-name="Nacute" unicode="&#x143;" horiz-adv-x="538" 
d="M399 869l-146 -95l-13 18l140 105zM466 -3l-12 -1l-352 646v-642h-30v736l13 1l351 -646v642h30v-736z" />
    <glyph glyph-name="nacute" unicode="&#x144;" 
d="M318 573l-146 -95l-13 18l140 105zM320 0h-30v317q0 93 -78 93q-62 0 -125 -81v-329h-31v430h30v-68q60 76 129 76q52 0 78.5 -32t26.5 -86v-320z" />
    <glyph glyph-name="Ncommaaccent" unicode="&#x145;" horiz-adv-x="538" 
d="M305 -98q0 -30 -20 -60.5t-42 -45.5l-10 9q40 38 44 78q-36 5 -36 33q0 12 9 21t20 9q15 0 25 -12t10 -32zM466 -3l-12 -1l-352 646v-642h-30v736l13 1l351 -646v642h30v-736z" />
    <glyph glyph-name="ncommaaccent" unicode="&#x146;" 
d="M224 -108q0 -30 -20 -60.5t-42 -45.5l-10 9q40 38 44 78q-36 5 -36 33q0 12 9 21t20 9q15 0 25 -12t10 -32zM320 0h-30v317q0 93 -78 93q-62 0 -125 -81v-329h-31v430h30v-68q60 76 129 76q52 0 78.5 -32t26.5 -86v-320z" />
    <glyph glyph-name="Ncaron" unicode="&#x147;" horiz-adv-x="538" 
d="M371 891l-95 -108h-15l-96 108h35l70 -77l66 77h35zM466 -3l-12 -1l-352 646v-642h-30v736l13 1l351 -646v642h30v-736z" />
    <glyph glyph-name="ncaron" unicode="&#x148;" 
d="M291 595l-95 -108h-15l-96 108h35l70 -77l66 77h35zM320 0h-30v317q0 93 -78 93q-62 0 -125 -81v-329h-31v430h30v-68q60 76 129 76q52 0 78.5 -32t26.5 -86v-320z" />
    <glyph glyph-name="Omacron" unicode="&#x14c;" horiz-adv-x="589" 
d="M409 814h-227v29h227v-29zM544 367q0 -162 -69 -268.5t-179 -106.5q-111 0 -180.5 106.5t-69.5 268.5q0 161 70 267.5t180 106.5t179 -106t69 -268zM512 367q0 150 -61 248t-155 98q-95 0 -156.5 -98t-61.5 -248q0 -151 61.5 -249t156.5 -98q94 0 155 98t61 249z" />
    <glyph glyph-name="omacron" unicode="&#x14d;" horiz-adv-x="380" 
d="M305 508h-227v29h227v-29zM347 216q0 -98 -44 -161t-113 -63q-70 0 -113 61t-43 160q0 98 43.5 161.5t112.5 63.5q70 0 113.5 -61.5t43.5 -160.5zM316 215q0 84 -34.5 139.5t-91.5 55.5q-55 0 -90 -57.5t-35 -138.5q0 -83 34.5 -138.5t90.5 -55.5t91 57t35 138z" />
    <glyph glyph-name="Obreve" unicode="&#x14e;" horiz-adv-x="589" 
d="M544 367q0 -162 -69 -268.5t-179 -106.5q-111 0 -180.5 106.5t-69.5 268.5q0 161 70 267.5t180 106.5t179 -106t69 -268zM512 367q0 150 -61 248t-155 98q-95 0 -156.5 -98t-61.5 -248q0 -151 61.5 -249t156.5 -98q94 0 155 98t61 249zM395 897q0 -43 -26.5 -72
t-73.5 -29q-45 0 -72 29.5t-28 71.5l28 3q1 -36 19.5 -58t52.5 -22t53 22t20 58z" />
    <glyph glyph-name="obreve" unicode="&#x14f;" horiz-adv-x="380" 
d="M347 216q0 -98 -44 -161t-113 -63q-70 0 -113 61t-43 160q0 98 43.5 161.5t112.5 63.5q70 0 113.5 -61.5t43.5 -160.5zM316 215q0 84 -34.5 139.5t-91.5 55.5q-55 0 -90 -57.5t-35 -138.5q0 -83 34.5 -138.5t90.5 -55.5t91 57t35 138zM291 591q0 -43 -26.5 -72t-73.5 -29
q-45 0 -72 29.5t-28 71.5l28 3q1 -36 19.5 -58t52.5 -22t53 22t20 58z" />
    <glyph glyph-name="Ohungarumlaut" unicode="&#x150;" horiz-adv-x="589" 
d="M342 935l-93 -144l-18 11l82 151zM449 922l-92 -140l-18 11l80 147zM544 367q0 -162 -69 -268.5t-179 -106.5q-111 0 -180.5 106.5t-69.5 268.5q0 161 70 267.5t180 106.5t179 -106t69 -268zM512 367q0 150 -61 248t-155 98q-95 0 -156.5 -98t-61.5 -248
q0 -151 61.5 -249t156.5 -98q94 0 155 98t61 249z" />
    <glyph glyph-name="ohungarumlaut" unicode="&#x151;" horiz-adv-x="380" 
d="M238 629l-93 -144l-18 11l82 151zM345 616l-92 -140l-18 11l80 147zM347 216q0 -98 -44 -161t-113 -63q-70 0 -113 61t-43 160q0 98 43.5 161.5t112.5 63.5q70 0 113.5 -61.5t43.5 -160.5zM316 215q0 84 -34.5 139.5t-91.5 55.5q-55 0 -90 -57.5t-35 -138.5
q0 -83 34.5 -138.5t90.5 -55.5t91 57t35 138z" />
    <glyph glyph-name="OE" unicode="&#x152;" horiz-adv-x="769" 
d="M728 0h-283q-50 -6 -90 -6q-142 0 -226.5 105t-84.5 266t84 268t228 107q46 0 102 -7h270v-29h-268v-316h245v-29h-245v-330h268v-29zM428 26v681q-30 5 -71 5q-129 0 -204.5 -98t-75.5 -250t76 -247t204 -95q33 0 71 4z" />
    <glyph glyph-name="oe" unicode="&#x153;" horiz-adv-x="637" 
d="M604 232v-23h-253q1 -88 36 -138.5t100 -50.5q47 0 90 27q0 -1 1 -2t2.5 -4.5t2.5 -6t2.5 -5.5l2.5 -5l1 -1q-47 -31 -104 -31q-120 0 -153 134q-16 -63 -53.5 -99t-88.5 -36q-70 0 -113 61t-43 161q0 99 43.5 162.5t112.5 63.5q52 0 89.5 -35.5t53.5 -99.5
q15 64 50.5 99.5t84.5 35.5q64 0 100 -57t36 -150zM316 215q0 85 -34.5 140.5t-91.5 55.5q-56 0 -90.5 -57t-34.5 -140q0 -84 34.5 -139.5t90.5 -55.5t91 57t35 139zM573 236q-2 78 -29 126.5t-78 48.5q-48 0 -79 -48t-35 -127h221z" />
    <glyph glyph-name="Racute" unicode="&#x154;" horiz-adv-x="452" 
d="M424 0h-36l-160 313q-21 -5 -53 -5q-39 0 -71 5v-313h-32v729q70 10 103 10q108 0 168 -59t60 -154q0 -74 -39 -128t-106 -77zM370 526q0 83 -50.5 133.5t-144.5 50.5q-28 0 -71 -5v-364q30 -5 71 -5q86 0 140.5 51t54.5 139zM350 874l-146 -95l-13 18l140 105z" />
    <glyph glyph-name="racute" unicode="&#x155;" horiz-adv-x="223" 
d="M208 407q-36 -2 -68 -26t-53 -65v-316h-31v430h30v-75q49 82 122 82v-30zM263 573l-146 -95l-13 18l140 105z" />
    <glyph glyph-name="Rcommaaccent" unicode="&#x156;" horiz-adv-x="452" 
d="M424 0h-36l-160 313q-21 -5 -53 -5q-39 0 -71 5v-313h-32v729q70 10 103 10q108 0 168 -59t60 -154q0 -74 -39 -128t-106 -77zM370 526q0 83 -50.5 133.5t-144.5 50.5q-28 0 -71 -5v-364q30 -5 71 -5q86 0 140.5 51t54.5 139zM259 -103q0 -30 -20 -60.5t-42 -45.5l-10 9
q40 38 44 78q-36 5 -36 33q0 12 9 21t20 9q15 0 25 -12t10 -32z" />
    <glyph glyph-name="rcommaaccent" unicode="&#x157;" horiz-adv-x="223" 
d="M208 407q-36 -2 -68 -26t-53 -65v-316h-31v430h30v-75q49 82 122 82v-30zM106 -108q0 -30 -20 -60.5t-42 -45.5l-10 9q40 38 44 78q-36 5 -36 33q0 12 9 21t20 9q15 0 25 -12t10 -32z" />
    <glyph glyph-name="Rcaron" unicode="&#x158;" horiz-adv-x="452" 
d="M424 0h-36l-160 313q-21 -5 -53 -5q-39 0 -71 5v-313h-32v729q70 10 103 10q108 0 168 -59t60 -154q0 -74 -39 -128t-106 -77zM370 526q0 83 -50.5 133.5t-144.5 50.5q-28 0 -71 -5v-364q30 -5 71 -5q86 0 140.5 51t54.5 139zM322 896l-95 -108h-15l-96 108h35l70 -77
l66 77h35z" />
    <glyph glyph-name="rcaron" unicode="&#x159;" horiz-adv-x="223" 
d="M208 407q-36 -2 -68 -26t-53 -65v-316h-31v430h30v-75q49 82 122 82v-30zM235 595l-95 -108h-15l-96 108h35l70 -77l66 77h35z" />
    <glyph glyph-name="Sacute" unicode="&#x15a;" horiz-adv-x="416" 
d="M342 879l-146 -95l-13 18l140 105zM369 170q0 -82 -51 -131t-126 -49q-83 0 -168 64l18 26q78 -61 152 -61q60 0 102 40.5t42 106.5q0 35 -10.5 63.5t-35.5 54.5t-41.5 38.5t-53.5 39.5q-36 25 -56 41.5t-44.5 43t-35.5 57.5t-11 68q0 76 47 123.5t122 47.5t139 -53
l-18 -25q-57 49 -123 49q-59 0 -97 -38.5t-38 -99.5q0 -27 9.5 -52.5t18.5 -41t34.5 -38.5t35 -30.5t42.5 -31.5q35 -24 56.5 -42t44.5 -44.5t34.5 -57.5t11.5 -68z" />
    <glyph glyph-name="sacute" unicode="&#x15b;" horiz-adv-x="287" 
d="M274 573l-146 -95l-13 18l140 105zM251 102q0 -47 -30.5 -79t-80.5 -32q-60 0 -116 43l16 24q50 -40 100 -40q36 0 58.5 22.5t22.5 58.5q0 29 -18.5 53t-45 41t-53 35.5t-45 46t-18.5 63.5q0 43 30 72t76 29q52 0 99 -35l-15 -26q-44 34 -85 34q-35 0 -55 -21t-20 -51
t18.5 -54.5t45 -41.5t53 -35t45 -45.5t18.5 -61.5z" />
    <glyph glyph-name="Scedilla" unicode="&#x15e;" horiz-adv-x="416" 
d="M279 -129q0 -29 -22.5 -49t-61.5 -20q-38 0 -84 27l12 24q43 -24 74 -24q25 0 38.5 11t13.5 30q0 49 -89 59l-2 4l15 58q-74 5 -149 63l18 26q78 -61 152 -61q60 0 102 40.5t42 106.5q0 35 -10.5 63.5t-35.5 54.5t-41.5 38.5t-53.5 39.5q-36 25 -56 41.5t-44.5 43
t-35.5 57.5t-11 68q0 76 47 123.5t122 47.5t139 -53l-18 -25q-57 49 -123 49q-59 0 -97 -38.5t-38 -99.5q0 -27 9.5 -52.5t18.5 -41t34.5 -38.5t35 -30.5t42.5 -31.5q35 -24 56.5 -42t44.5 -44.5t34.5 -57.5t11.5 -68q0 -79 -48 -127.5t-120 -52.5l-10 -40q43 -9 65.5 -30
t22.5 -49z" />
    <glyph glyph-name="scedilla" unicode="&#x15f;" horiz-adv-x="287" 
d="M221 -129q0 -29 -22.5 -49t-61.5 -20q-38 0 -84 27l12 24q43 -24 74 -24q25 0 38.5 11t13.5 30q0 49 -89 59l-2 4l15 60q-51 9 -91 41l16 24q50 -40 100 -40q36 0 58.5 22.5t22.5 58.5q0 29 -18.5 53t-45 41t-53 35.5t-45 46t-18.5 63.5q0 43 30 72t76 29q52 0 99 -35
l-15 -26q-44 34 -85 34q-35 0 -55 -21t-20 -51t18.5 -54.5t45 -41.5t53 -35t45 -45.5t18.5 -61.5q0 -46 -29.5 -78t-77.5 -33l-11 -41q43 -9 65.5 -30t22.5 -49z" />
    <glyph glyph-name="Scaron" unicode="&#x160;" horiz-adv-x="416" 
d="M314 901l-95 -108h-15l-96 108h35l70 -77l66 77h35zM369 170q0 -82 -51 -131t-126 -49q-83 0 -168 64l18 26q78 -61 152 -61q60 0 102 40.5t42 106.5q0 35 -10.5 63.5t-35.5 54.5t-41.5 38.5t-53.5 39.5q-36 25 -56 41.5t-44.5 43t-35.5 57.5t-11 68q0 76 47 123.5
t122 47.5t139 -53l-18 -25q-57 49 -123 49q-59 0 -97 -38.5t-38 -99.5q0 -27 9.5 -52.5t18.5 -41t34.5 -38.5t35 -30.5t42.5 -31.5q35 -24 56.5 -42t44.5 -44.5t34.5 -57.5t11.5 -68z" />
    <glyph glyph-name="scaron" unicode="&#x161;" horiz-adv-x="287" 
d="M246 595l-95 -108h-15l-96 108h35l70 -77l66 77h35zM251 102q0 -47 -30.5 -79t-80.5 -32q-60 0 -116 43l16 24q50 -40 100 -40q36 0 58.5 22.5t22.5 58.5q0 29 -18.5 53t-45 41t-53 35.5t-45 46t-18.5 63.5q0 43 30 72t76 29q52 0 99 -35l-15 -26q-44 34 -85 34
q-35 0 -55 -21t-20 -51t18.5 -54.5t45 -41.5t53 -35t45 -45.5t18.5 -61.5z" />
    <glyph glyph-name="Tcommaaccent" unicode="&#x162;" horiz-adv-x="429" 
d="M250 -108q0 -30 -20 -60.5t-42 -45.5l-10 9q40 38 44 78q-36 5 -36 33q0 12 9 21t20 9q15 0 25 -12t10 -32zM408 704h-178v-704h-31v704h-178v29h387v-29z" />
    <glyph glyph-name="tcommaaccent" unicode="&#x163;" horiz-adv-x="235" 
d="M170 -108q0 -30 -20 -60.5t-42 -45.5l-10 9q40 38 44 78q-36 5 -36 33q0 12 9 21t20 9q15 0 25 -12t10 -32zM213 401h-107v-314q0 -67 56 -67q24 0 48 7l3 -27q-28 -7 -53 -7q-44 0 -64.5 23t-20.5 72v312h-62v16l62 14v101l31 28v-129h107v-29z" />
    <glyph glyph-name="Tcaron" unicode="&#x164;" horiz-adv-x="429" 
d="M316 896l-95 -108h-15l-96 108h35l70 -77l66 77h35zM408 704h-178v-704h-31v704h-178v29h387v-29z" />
    <glyph glyph-name="tcaron" unicode="&#x165;" horiz-adv-x="235" 
d="M190 678l30 -4q0 -121 -67 -187l-13 11q50 62 50 180zM213 401h-107v-314q0 -67 56 -67q24 0 48 7l3 -27q-28 -7 -53 -7q-44 0 -64.5 23t-20.5 72v312h-62v16l62 14v101l31 28v-129h107v-29z" />
    <glyph glyph-name="Umacron" unicode="&#x16a;" horiz-adv-x="529" 
d="M460 216q0 -108 -52 -165.5t-144 -57.5q-93 0 -144 56.5t-51 166.5v517h32v-522q0 -90 43 -140t121 -50q77 0 120.5 50.5t43.5 141.5v520h31v-517zM378 804h-227v29h227v-29z" />
    <glyph glyph-name="umacron" unicode="&#x16b;" 
d="M317 0h-29v68q-62 -76 -129 -76q-52 0 -79 32t-27 86v320h31v-318q0 -92 78 -92q62 0 125 80v330h30v-430zM300 508h-227v29h227v-29z" />
    <glyph glyph-name="Ubreve" unicode="&#x16c;" horiz-adv-x="529" 
d="M460 216q0 -108 -52 -165.5t-144 -57.5q-93 0 -144 56.5t-51 166.5v517h32v-522q0 -90 43 -140t121 -50q77 0 120.5 50.5t43.5 141.5v520h31v-517zM364 887q0 -43 -26.5 -72t-73.5 -29q-45 0 -72 29.5t-28 71.5l28 3q1 -36 19.5 -58t52.5 -22t53 22t20 58z" />
    <glyph glyph-name="ubreve" unicode="&#x16d;" 
d="M317 0h-29v68q-62 -76 -129 -76q-52 0 -79 32t-27 86v320h31v-318q0 -92 78 -92q62 0 125 80v330h30v-430zM286 591q0 -43 -26.5 -72t-73.5 -29q-45 0 -72 29.5t-28 71.5l28 3q1 -36 19.5 -58t52.5 -22t53 22t20 58z" />
    <glyph glyph-name="Uring" unicode="&#x16e;" horiz-adv-x="529" 
d="M460 216q0 -108 -52 -165.5t-144 -57.5q-93 0 -144 56.5t-51 166.5v517h32v-522q0 -90 43 -140t121 -50q77 0 120.5 50.5t43.5 141.5v520h31v-517zM345 861q0 -32 -23 -56.5t-57 -24.5q-35 0 -58 24t-23 57t23 57t58 24q34 0 57 -24t23 -57zM320 861q0 25 -15 42t-40 17
t-40 -17t-15 -42q0 -24 15 -41.5t40 -17.5t40 17.5t15 41.5z" />
    <glyph glyph-name="uring" unicode="&#x16f;" 
d="M266 565q0 -32 -23 -56.5t-57 -24.5q-35 0 -58 24t-23 57t23 57t58 24q34 0 57 -24t23 -57zM241 565q0 25 -15 42t-40 17t-40 -17t-15 -42q0 -24 15 -41.5t40 -17.5t40 17.5t15 41.5zM317 0h-29v68q-62 -76 -129 -76q-52 0 -79 32t-27 86v320h31v-318q0 -92 78 -92
q62 0 125 80v330h30v-430z" />
    <glyph glyph-name="Uhungarumlaut" unicode="&#x170;" horiz-adv-x="529" 
d="M460 216q0 -108 -52 -165.5t-144 -57.5q-93 0 -144 56.5t-51 166.5v517h32v-522q0 -90 43 -140t121 -50q77 0 120.5 50.5t43.5 141.5v520h31v-517zM311 925l-93 -144l-18 11l82 151zM418 912l-92 -140l-18 11l80 147z" />
    <glyph glyph-name="uhungarumlaut" unicode="&#x171;" 
d="M317 0h-29v68q-62 -76 -129 -76q-52 0 -79 32t-27 86v320h31v-318q0 -92 78 -92q62 0 125 80v330h30v-430zM232 629l-93 -144l-18 11l82 151zM339 616l-92 -140l-18 11l80 147z" />
    <glyph glyph-name="Uogonek" unicode="&#x172;" horiz-adv-x="529" 
d="M460 216q0 -99 -43.5 -155.5t-120.5 -65.5q-72 -74 -72 -127q0 -20 10 -31.5t26 -11.5q24 0 44 25l16 -18q-26 -34 -63 -34q-28 0 -45 18.5t-17 49.5q0 55 63 127q-91 2 -140 58.5t-49 164.5v517h32v-522q0 -90 43 -140t121 -50q77 0 120.5 50.5t43.5 141.5v520h31v-517z
" />
    <glyph glyph-name="uogonek" unicode="&#x173;" 
d="M317 0q-77 -77 -77 -132q0 -20 10 -31.5t26 -11.5q24 0 44 25l16 -18q-26 -34 -63 -34q-28 0 -45 18.5t-17 49.5q0 61 77 141v61q-62 -76 -129 -76q-52 0 -79 32t-27 86v320h31v-318q0 -92 78 -92q62 0 125 80v330h30v-430z" />
    <glyph glyph-name="Wcircumflex" unicode="&#x174;" horiz-adv-x="732" 
d="M468 787h-35l-69 78l-66 -78h-36l95 109h15zM693 733l-142 -740l-14 -1l-171 650l-173 -650l-13 1l-142 740h31l122 -644l169 644h12l169 -644l121 644h31z" />
    <glyph glyph-name="wcircumflex" unicode="&#x175;" horiz-adv-x="500" 
d="M351 486h-35l-69 78l-66 -78h-36l95 109h15zM474 430l-107 -441h-10l-106 362l-108 -362h-10l-107 441h31l83 -358l107 357h8l106 -357l82 358h31z" />
    <glyph glyph-name="Ycircumflex" unicode="&#x176;" horiz-adv-x="448" 
d="M428 733l-188 -413v-320h-32v319l-188 414h35l170 -379l168 379h35zM326 782h-35l-69 78l-66 -78h-36l95 109h15z" />
    <glyph glyph-name="ycircumflex" unicode="&#x177;" horiz-adv-x="329" 
d="M315 430l-213 -629h-30l78 224l-138 405h33l120 -363l118 363h32zM268 486h-35l-69 78l-66 -78h-36l95 109h15z" />
    <glyph glyph-name="Ydieresis" unicode="&#x178;" horiz-adv-x="448" 
d="M428 733l-188 -413v-320h-32v319l-188 414h35l170 -379l168 379h35zM317 822q0 -12 -8.5 -21t-20.5 -9t-20.5 9t-8.5 21t8.5 20.5t20.5 8.5t20.5 -8.5t8.5 -20.5zM188 822q0 -12 -8.5 -21t-20.5 -9t-20.5 9t-8.5 21t8.5 20.5t20.5 8.5t20.5 -8.5t8.5 -20.5z" />
    <glyph glyph-name="Zacute" unicode="&#x179;" horiz-adv-x="457" 
d="M363 874l-146 -95l-13 18l140 105zM421 726l-343 -697h339v-29h-381l-3 6l344 698h-324v29h366z" />
    <glyph glyph-name="zacute" unicode="&#x17a;" horiz-adv-x="305" 
d="M284 573l-146 -95l-13 18l140 105zM288 424l-230 -396h225v-28h-267l-3 6l230 396h-214v28h256z" />
    <glyph glyph-name="Zdotaccent" unicode="&#x17b;" horiz-adv-x="457" 
d="M421 726l-343 -697h339v-29h-381l-3 6l344 698h-324v29h366zM205 827q0 12 8 20.5t21 8.5q12 0 20 -8.5t8 -20.5t-8 -21t-20 -9t-20.5 9t-8.5 21z" />
    <glyph glyph-name="zdotaccent" unicode="&#x17c;" horiz-adv-x="305" 
d="M288 424l-230 -396h225v-28h-267l-3 6l230 396h-214v28h256zM126 526q0 12 8 20.5t21 8.5q12 0 20 -8.5t8 -20.5t-8 -21t-20 -9t-20.5 9t-8.5 21z" />
    <glyph glyph-name="Zcaron" unicode="&#x17d;" horiz-adv-x="457" 
d="M335 896l-95 -108h-15l-96 108h35l70 -77l66 77h35zM421 726l-343 -697h339v-29h-381l-3 6l344 698h-324v29h366z" />
    <glyph glyph-name="zcaron" unicode="&#x17e;" horiz-adv-x="305" 
d="M257 595l-95 -108h-15l-96 108h35l70 -77l66 77h35zM288 424l-230 -396h225v-28h-267l-3 6l230 396h-214v28h256z" />
    <glyph glyph-name="florin" unicode="&#x192;" horiz-adv-x="298" 
d="M294 660l-8 -28q-22 6 -42 6q-81 0 -94 -118l-13 -133h85l-2 -28h-86l-37 -359h-31l37 359h-58l3 15l57 13l14 135q15 145 128 145q24 0 47 -7z" />
    <glyph glyph-name="Aringacute" unicode="&#x1fa;" horiz-adv-x="518" 
d="M382 987l-146 -95l-13 18l140 105zM340 784q0 -29 -18 -51.5t-47 -28.5l213 -704h-32l-71 234h-252l-71 -234h-33l215 704q-29 6 -47 28.5t-18 51.5q0 33 23 57t58 24q34 0 57 -24t23 -57zM376 262l-117 394l-118 -394h235zM315 784q0 25 -15 42t-40 17t-40 -17t-15 -42
t15 -42t40 -17t40 17t15 42z" />
    <glyph glyph-name="aringacute" unicode="&#x1fb;" horiz-adv-x="340" 
d="M287 0h-30v46q-39 -55 -101 -55q-54 0 -89.5 36.5t-35.5 97.5q0 63 36.5 100.5t91.5 37.5q49 0 97 -34v79q0 103 -97 103q-42 0 -87 -21l-9 27q47 22 99 22q125 0 125 -126v-313zM256 78v125q-47 33 -96 33q-43 0 -70.5 -29t-27.5 -79q0 -52 26 -81t70 -29q58 0 98 60z
M249 565q0 -32 -23 -56.5t-57 -24.5q-35 0 -58 24t-23 57t23 57t58 24q34 0 57 -24t23 -57zM224 565q0 25 -15 42t-40 17t-40 -17t-15 -42q0 -24 15 -41.5t40 -17.5t40 17.5t15 41.5zM299 779l-146 -95l-13 18l140 105z" />
    <glyph glyph-name="AEacute" unicode="&#x1fc;" horiz-adv-x="761" 
d="M719 0h-300v234h-228l-125 -234h-36l390 733h299v-29h-268v-316h245v-29h-245v-330h268v-29zM419 262v400l-213 -400h213zM615 874l-146 -95l-13 18l140 105z" />
    <glyph glyph-name="aeacute" unicode="&#x1fd;" horiz-adv-x="574" 
d="M424 573l-146 -95l-13 18l140 105zM257 225v83q0 103 -97 103q-40 0 -87 -21l-8 27q47 22 98 22q103 0 120 -93q36 93 122 93q65 0 100.5 -56t35.5 -148q0 -20 -1 -26h-252q1 -88 35.5 -138.5t99.5 -50.5q48 0 91 27q0 -1 1 -2t2.5 -4.5t2.5 -6t2.5 -5.5l2.5 -5l1 -1
q-47 -31 -104 -31q-114 0 -147 118q-12 -57 -44 -88t-80 -31q-52 0 -85.5 36.5t-33.5 97.5q0 63 36.5 100.5t92.5 37.5q48 0 96 -38zM510 236q-2 78 -29 126.5t-78 48.5q-48 0 -79 -48t-36 -127h222zM258 197q-48 39 -96 39q-44 0 -71.5 -29t-27.5 -79q0 -52 24.5 -81
t65.5 -29q47 0 75 49t30 130z" />
    <glyph glyph-name="Oslashacute" unicode="&#x1fe;" horiz-adv-x="589" 
d="M544 367q0 -162 -69 -268.5t-179 -106.5q-107 0 -177 102l-70 -101l-22 15q2 3 6 8.5t14 20.5l19 28.5l18 27t14 21.5l6 8q-58 102 -58 245q0 161 70 267.5t180 106.5q104 0 175 -101l71 102l21 -16q-62 -99 -77 -114q58 -102 58 -245zM512 367q0 120 -47 212l-326 -454
q60 -105 157 -105q94 0 155 98t61 249zM451 609q-61 104 -155 104q-95 0 -156.5 -98t-61.5 -248q0 -123 47 -212zM424 879l-146 -95l-13 18l140 105z" />
    <glyph glyph-name="oslashacute" unicode="&#x1ff;" horiz-adv-x="380" 
d="M364 439l-51 -75q34 -59 34 -148q0 -99 -44 -162t-113 -63q-64 0 -106 50l-46 -64l-22 14l52 74q-34 59 -34 148q0 99 43.5 162.5t112.5 63.5q65 0 106 -51q5 4 16.5 20.5t21.5 31.5l9 14zM87 95l191 266q-34 50 -88 50q-56 0 -90.5 -57t-34.5 -140q0 -71 22 -119z
M293 333l-190 -266q34 -48 87 -48q56 0 91 57t35 139q0 64 -23 118zM320 573l-146 -95l-13 18l140 105z" />
    <glyph glyph-name="Scommaaccent" unicode="&#x218;" horiz-adv-x="416" 
d="M248 -108q0 -30 -20 -60.5t-42 -45.5l-10 9q40 38 44 78q-36 5 -36 33q0 12 9 21t20 9q15 0 25 -12t10 -32zM369 170q0 -82 -51 -131t-126 -49q-83 0 -168 64l18 26q78 -61 152 -61q60 0 102 40.5t42 106.5q0 35 -10.5 63.5t-35.5 54.5t-41.5 38.5t-53.5 39.5
q-36 25 -56 41.5t-44.5 43t-35.5 57.5t-11 68q0 76 47 123.5t122 47.5t139 -53l-18 -25q-57 49 -123 49q-59 0 -97 -38.5t-38 -99.5q0 -27 9.5 -52.5t18.5 -41t34.5 -38.5t35 -30.5t42.5 -31.5q35 -24 56.5 -42t44.5 -44.5t34.5 -57.5t11.5 -68z" />
    <glyph glyph-name="scommaaccent" unicode="&#x219;" horiz-adv-x="287" 
d="M179 -108q0 -30 -20 -60.5t-42 -45.5l-10 9q40 38 44 78q-36 5 -36 33q0 12 9 21t20 9q15 0 25 -12t10 -32zM251 102q0 -47 -30.5 -79t-80.5 -32q-60 0 -116 43l16 24q50 -40 100 -40q36 0 58.5 22.5t22.5 58.5q0 29 -18.5 53t-45 41t-53 35.5t-45 46t-18.5 63.5
q0 43 30 72t76 29q52 0 99 -35l-15 -26q-44 34 -85 34q-35 0 -55 -21t-20 -51t18.5 -54.5t45 -41.5t53 -35t45 -45.5t18.5 -61.5z" />
    <glyph glyph-name="schwa" unicode="&#x259;" horiz-adv-x="352" 
d="M34 198v23h253q-1 88 -35.5 138.5t-99.5 50.5q-48 0 -91 -27q0 1 -1 2t-2.5 4.5t-2.5 6t-2.5 5.5l-2.5 5l-1 1q47 31 104 31q79 0 122.5 -59.5t43.5 -162.5q0 -101 -41.5 -163t-107.5 -62q-64 0 -100 57t-36 150zM287 194h-222q2 -78 29 -126.5t78 -48.5q48 0 79 48
t36 127z" />
    <glyph glyph-name="circumflex" unicode="&#x2c6;" horiz-adv-x="417" 
d="M312 486h-35l-69 78l-66 -78h-36l95 109h15z" />
    <glyph glyph-name="caron" unicode="&#x2c7;" horiz-adv-x="417" 
d="M312 595l-95 -108h-15l-96 108h35l70 -77l66 77h35z" />
    <glyph glyph-name="breve" unicode="&#x2d8;" horiz-adv-x="417" 
d="M308 591q0 -43 -26.5 -72t-73.5 -29q-45 0 -72 29.5t-28 71.5l28 3q1 -36 19.5 -58t52.5 -22t53 22t20 58z" />
    <glyph glyph-name="dotaccent" unicode="&#x2d9;" horiz-adv-x="417" 
d="M180 526q0 12 8 20.5t21 8.5q12 0 20 -8.5t8 -20.5t-8 -21t-20 -9t-20.5 9t-8.5 21z" />
    <glyph glyph-name="ring" unicode="&#x2da;" horiz-adv-x="417" 
d="M289 565q0 -32 -23 -56.5t-57 -24.5q-35 0 -58 24t-23 57t23 57t58 24q34 0 57 -24t23 -57zM264 565q0 25 -15 42t-40 17t-40 -17t-15 -42q0 -24 15 -41.5t40 -17.5t40 17.5t15 41.5z" />
    <glyph glyph-name="ogonek" unicode="&#x2db;" horiz-adv-x="414" 
d="M273 -168q-25 -34 -63 -34q-28 0 -45 18.5t-17 49.5q0 64 91 156l15 -22q-77 -77 -77 -132q0 -20 10 -31.5t26 -11.5q24 0 44 25z" />
    <glyph glyph-name="tilde" unicode="&#x2dc;" horiz-adv-x="417" 
d="M326 536q-36 -40 -72 -40q-19 1 -49 17q-36 19 -46 19q-24 1 -53 -31l-18 20q37 41 72 40q21 0 49 -17q34 -19 46 -19q23 -1 53 32z" />
    <glyph glyph-name="hungarumlaut" unicode="&#x2dd;" horiz-adv-x="417" 
d="M219 629l-93 -144l-18 11l82 151zM326 616l-92 -140l-18 11l80 147z" />
    <glyph glyph-name="commaaccent" unicode="&#x326;" horiz-adv-x="137" 
d="M103 -108q0 -30 -20 -60.5t-42 -45.5l-10 9q40 38 44 78q-36 5 -36 33q0 12 9 21t20 9q15 0 25 -12t10 -32z" />
    <glyph glyph-name="Wgrave" unicode="&#x1e80;" horiz-adv-x="732" 
d="M693 733l-142 -740l-14 -1l-171 650l-173 -650l-13 1l-142 740h31l122 -644l169 644h12l169 -644l121 644h31zM392 797l-13 -18l-146 95l19 28z" />
    <glyph glyph-name="wgrave" unicode="&#x1e81;" horiz-adv-x="500" 
d="M474 430l-107 -441h-10l-106 362l-108 -362h-10l-107 441h31l83 -358l107 357h8l106 -357l82 358h31zM277 496l-13 -18l-146 95l19 28z" />
    <glyph glyph-name="Wacute" unicode="&#x1e82;" horiz-adv-x="732" 
d="M496 874l-146 -95l-13 18l140 105zM693 733l-142 -740l-14 -1l-171 650l-173 -650l-13 1l-142 740h31l122 -644l169 644h12l169 -644l121 644h31z" />
    <glyph glyph-name="wacute" unicode="&#x1e83;" horiz-adv-x="500" 
d="M380 573l-146 -95l-13 18l140 105zM474 430l-107 -441h-10l-106 362l-108 -362h-10l-107 441h31l83 -358l107 357h8l106 -357l82 358h31z" />
    <glyph glyph-name="Wdieresis" unicode="&#x1e84;" horiz-adv-x="732" 
d="M459 827q0 -12 -8.5 -21t-20.5 -9t-20.5 9t-8.5 21t8.5 20.5t20.5 8.5t20.5 -8.5t8.5 -20.5zM330 827q0 -12 -8.5 -21t-20.5 -9t-20.5 9t-8.5 21t8.5 20.5t20.5 8.5t20.5 -8.5t8.5 -20.5zM693 733l-142 -740l-14 -1l-171 650l-173 -650l-13 1l-142 740h31l122 -644
l169 644h12l169 -644l121 644h31z" />
    <glyph glyph-name="wdieresis" unicode="&#x1e85;" horiz-adv-x="500" 
d="M343 526q0 -12 -8.5 -21t-20.5 -9t-20.5 9t-8.5 21t8.5 20.5t20.5 8.5t20.5 -8.5t8.5 -20.5zM214 526q0 -12 -8.5 -21t-20.5 -9t-20.5 9t-8.5 21t8.5 20.5t20.5 8.5t20.5 -8.5t8.5 -20.5zM474 430l-107 -441h-10l-106 362l-108 -362h-10l-107 441h31l83 -358l107 357h8
l106 -357l82 358h31z" />
    <glyph glyph-name="Ygrave" unicode="&#x1ef2;" horiz-adv-x="448" 
d="M428 733l-188 -413v-320h-32v319l-188 414h35l170 -379l168 379h35zM251 792l-13 -18l-146 95l19 28z" />
    <glyph glyph-name="ygrave" unicode="&#x1ef3;" horiz-adv-x="329" 
d="M315 430l-213 -629h-30l78 224l-138 405h33l120 -363l118 363h32zM193 496l-13 -18l-146 95l19 28z" />
    <glyph glyph-name="enspace" unicode="&#x2002;" horiz-adv-x="500" 
 />
    <glyph glyph-name="emspace" unicode="&#x2003;" horiz-adv-x="1000" 
 />
    <glyph glyph-name="threeperemspace" unicode="&#x2004;" horiz-adv-x="333" 
 />
    <glyph glyph-name="fourperemspace" unicode="&#x2005;" horiz-adv-x="250" 
 />
    <glyph glyph-name="figurespace" unicode="&#x2007;" horiz-adv-x="520" 
 />
    <glyph glyph-name="thinspace" unicode="&#x2009;" horiz-adv-x="133" 
 />
    <glyph glyph-name="hairspace" unicode="&#x200a;" horiz-adv-x="75" 
 />
    <glyph glyph-name="endash" unicode="&#x2013;" horiz-adv-x="379" 
d="M337 243h-295v28h295v-28z" />
    <glyph glyph-name="emdash" unicode="&#x2014;" horiz-adv-x="564" 
d="M522 243h-480v28h480v-28z" />
    <glyph glyph-name="quoteleft" unicode="&#x2018;" horiz-adv-x="111" 
d="M87 622q0 -12 -9 -21t-21 -9q-15 0 -25 12.5t-10 31.5q0 32 20 63.5t43 45.5l10 -9q-41 -41 -45 -80q37 -5 37 -34z" />
    <glyph glyph-name="quoteright" unicode="&#x2019;" horiz-adv-x="111" 
d="M89 698q0 -32 -20 -63.5t-43 -45.5l-10 9q41 41 44 80q-17 2 -26.5 12t-9.5 22q0 13 9 21.5t21 8.5q15 0 25 -12t10 -32z" />
    <glyph glyph-name="quotesinglbase" unicode="&#x201a;" horiz-adv-x="112" 
d="M90 11q0 -32 -20 -62.5t-43 -45.5l-10 9q40 42 44 80q-17 2 -26.5 11t-9.5 22t8.5 22t20.5 9q15 0 25.5 -12.5t10.5 -32.5z" />
    <glyph glyph-name="quotedblleft" unicode="&#x201c;" horiz-adv-x="210" 
d="M186 622q0 -12 -9 -21t-21 -9q-15 0 -25.5 12.5t-10.5 31.5q0 32 20.5 63t43.5 46l10 -9q-41 -41 -45 -80q37 -5 37 -34zM87 622q0 -12 -9 -21t-21 -9q-15 0 -25 12.5t-10 31.5q0 32 20 63.5t43 45.5l10 -9q-41 -41 -45 -80q37 -5 37 -34z" />
    <glyph glyph-name="quotedblright" unicode="&#x201d;" horiz-adv-x="210" 
d="M188 698q0 -32 -20 -63.5t-43 -45.5l-10 9q40 40 44 80q-17 2 -26.5 12t-9.5 22t8.5 21t20.5 9q15 0 25.5 -12t10.5 -32zM89 698q0 -32 -20 -63.5t-43 -45.5l-10 9q41 41 44 80q-17 2 -26.5 12t-9.5 22q0 13 9 21.5t21 8.5q15 0 25 -12t10 -32z" />
    <glyph glyph-name="quotedblbase" unicode="&#x201e;" horiz-adv-x="210" 
d="M188 11q0 -32 -20 -62.5t-43 -45.5l-10 9q40 40 44 80q-36 5 -36 33q0 13 9 22t20 9q15 0 25.5 -12.5t10.5 -32.5zM89 11q0 -32 -20 -62.5t-43 -45.5l-10 9q41 41 44 80q-36 5 -36 33q0 13 9 22t21 9q15 0 25 -12.5t10 -32.5z" />
    <glyph glyph-name="dagger" unicode="&#x2020;" horiz-adv-x="329" 
d="M296 564h-116v-376h-29v376h-116v28h116v141h29v-141h116v-28z" />
    <glyph glyph-name="daggerdbl" unicode="&#x2021;" horiz-adv-x="354" 
d="M309 335h-115v-147h-30v147h-116v29h116v194h-116v28h116v147h30v-147h115v-28h-115v-194h115v-29z" />
    <glyph glyph-name="bullet" unicode="&#x2022;" horiz-adv-x="282" 
d="M222 366q0 -34 -23.5 -58t-57.5 -24t-57.5 24t-23.5 58t23.5 58t57.5 24t57.5 -24t23.5 -58z" />
    <glyph glyph-name="ellipsis" unicode="&#x2026;" horiz-adv-x="443" 
d="M42 24q0 13 9 22.5t22 9.5t22 -9.5t9 -22.5t-9 -22.5t-22 -9.5t-22 9.5t-9 22.5zM190 24q0 13 9 22.5t22 9.5t22.5 -9.5t9.5 -22.5q0 -14 -9.5 -23t-22.5 -9t-22 9.5t-9 22.5zM338 24q0 13 9.5 22.5t22.5 9.5t22 -9.5t9 -22.5t-9 -22.5t-22 -9.5t-22.5 9.5t-9.5 22.5z
" />
    <glyph glyph-name="perthousand" unicode="&#x2030;" horiz-adv-x="745" 
d="M212 509q0 56 -20 94.5t-56 38.5t-56 -38.5t-20 -94.5t20 -94.5t56 -38.5t56 38.5t20 94.5zM241 509q0 -70 -28 -114.5t-77 -44.5t-77 44.5t-28 114.5q0 69 28 114t77 45t77 -45t28 -114zM468 656l-407 -666l-21 13l407 666zM448 151q0 56 -20 94.5t-56 38.5t-56 -38.5
t-20 -94.5q0 -57 20 -95.5t56 -38.5t56 38.5t20 95.5zM477 151q0 -70 -28 -114.5t-77 -44.5t-77 44.5t-28 114.5q0 69 28 113.5t77 44.5t77 -44.5t28 -113.5zM688 151q0 56 -20 94.5t-56 38.5t-56 -38.5t-20 -94.5q0 -57 20 -95.5t56 -38.5t56 39t20 95zM717 151
q0 -70 -28 -114.5t-77 -44.5q-50 0 -77.5 44.5t-27.5 114.5q0 69 28 113.5t77 44.5t77 -44.5t28 -113.5z" />
    <glyph glyph-name="guilsinglleft" unicode="&#x2039;" horiz-adv-x="174" 
d="M143 38h-32l-81 164l81 163h32l-81 -163z" />
    <glyph glyph-name="guilsinglright" unicode="&#x203a;" horiz-adv-x="174" 
d="M144 202l-81 -164h-32l81 164l-81 163h32z" />
    <glyph glyph-name="fraction" unicode="&#x2044;" horiz-adv-x="465" 
d="M450 666l-418 -677l-24 16l417 676z" />
    <glyph glyph-name="Euro" unicode="&#x20ac;" horiz-adv-x="469" 
d="M81 385h-58v27h62q16 122 74.5 188.5t142.5 66.5q76 0 136 -48l-17 -26q-58 46 -120 46q-70 0 -119.5 -59.5t-64.5 -167.5h246v-27h-250q-2 -18 -2 -58q0 -25 2 -61h250v-27h-246q15 -105 65.5 -161.5t119.5 -56.5q62 0 121 46l15 -24q-66 -51 -137 -51q-84 0 -142 63.5
t-74 183.5h-62v27h57q-1 19 -1 61q0 40 2 58z" />
    <glyph glyph-name="published" unicode="&#x2117;" horiz-adv-x="650" 
d="M399 434q0 40 -23.5 65.5t-65.5 25.5q-19 0 -30 -1v-180q20 -2 31 -2q41 0 64.5 24.5t23.5 67.5zM430 435q0 -51 -31.5 -85t-87.5 -34q-22 0 -31 2v-135h-29v366q29 3 57 3q58 0 90 -33t32 -84zM613 366q0 -158 -82.5 -268t-205.5 -110t-205.5 110t-82.5 268t82.5 268.5
t205.5 110.5t205.5 -110.5t82.5 -268.5zM586 366q0 146 -74.5 250t-186.5 104t-186.5 -104t-74.5 -250t74.5 -249.5t186.5 -103.5t186.5 103.5t74.5 249.5z" />
    <glyph glyph-name="servicemark" unicode="&#x2120;" horiz-adv-x="321" 
d="M12 550l11 18q21 -16 40 -16q32 0 32 31q0 24 -35 47q-41 25 -41 58q0 20 14.5 34t36.5 14q25 0 44 -14l-10 -18q-16 13 -34 13q-29 0 -29 -29q0 -20 32 -42q43 -28 43 -63q0 -22 -14.5 -36t-37.5 -14q-25 0 -52 17zM303 535h-22l-1 139l-51 -120h-7l-52 120v-139h-22
l6 199l10 1l62 -143l61 143l9 -1z" />
    <glyph glyph-name="trademark" unicode="&#x2122;" horiz-adv-x="327" 
d="M308 535h-23v137l-49 -114h-8l-50 114v-137h-23l6 199h9l62 -136l60 136h10zM129 714h-49v-179h-23v179h-48v19h120v-19z" />
    <glyph glyph-name="arrowleft" unicode="&#x2190;" horiz-adv-x="546" 
d="M509 243h-438l174 -177l-20 -20l-205 208v6l205 208l20 -20l-174 -177h438v-28z" />
    <glyph glyph-name="arrowright" unicode="&#x2192;" horiz-adv-x="546" 
d="M36 271h439l-175 177l21 20l204 -208v-6l-204 -208l-21 20l175 177h-439v28z" />
    <glyph glyph-name="minus" unicode="&#x2212;" horiz-adv-x="375" 
d="M41 314v29h294v-29h-294z" />
    <glyph glyph-name="G.alt" horiz-adv-x="573" 
d="M288 360h242q0 -162 -62.5 -264.5t-169.5 -102.5q-111 0 -181.5 98.5t-70.5 273.5t74 276.5t188 101.5q102 0 179 -79l-22 -22q-72 72 -158 73q-97 0 -163 -95.5t-66 -254.5q0 -160 62.5 -252.5t158.5 -92.5q86 0 141 86.5t58 224.5h-210v29z" />
    <glyph glyph-name="M.alt" horiz-adv-x="631" 
d="M564 0h-30l-10 635l-205 -446h-8l-205 446l-9 -635h-31l15 736l12 2l223 -488l222 488l12 -2z" />
    <glyph glyph-name="zero.lin" horiz-adv-x="466" 
d="M420 364q0 -168 -48.5 -269.5t-138.5 -101.5q-91 0 -139 103t-48 268t48.5 268t138.5 103q91 0 139 -103t48 -268zM388 364q0 151 -40.5 247t-114.5 96t-114.5 -96t-40.5 -247t40.5 -247t114.5 -96t114.5 95.5t40.5 247.5z" />
    <glyph glyph-name="one.lin" horiz-adv-x="278" 
d="M169 0h-31v693l-98 -41l-10 27l129 55h10v-734z" />
    <glyph glyph-name="two.lin" horiz-adv-x="410" 
d="M363 0h-342l-3 8q75 106 208 326q46 71 69.5 125t23.5 107q0 64 -37 102t-98 38t-133 -54l-14 24q74 59 147 59q76 0 122 -45.5t46 -122.5q0 -57 -26 -115t-75 -134q-78 -136 -185 -290h297v-28z" />
    <glyph glyph-name="three.lin" horiz-adv-x="401" 
d="M353 212q0 -100 -53 -160t-138 -60q-62 0 -136 32l12 27q69 -31 124 -31q71 0 116 50.5t45 141.5q0 80 -47 123.5t-118 43.5q-40 0 -73 -10l-5 7l233 323h-279v28h323l4 -7l-230 -318q13 3 29 3q84 0 138.5 -50.5t54.5 -142.5z" />
    <glyph glyph-name="four.lin" horiz-adv-x="439" 
d="M417 220h-91v-220h-29v220h-282v11l296 506h15v-490h91v-27zM297 247v413l-242 -413h242z" />
    <glyph glyph-name="five.lin" horiz-adv-x="399" 
d="M357 219q0 -101 -53.5 -164t-137.5 -63q-64 0 -126 31l12 28q59 -31 116 -31q68 0 113 53t45 144q0 87 -43 132.5t-115 45.5q-47 0 -98 -15l-4 4v343h274v-28h-243v-283q33 7 72 7q86 0 137 -53t51 -151z" />
    <glyph glyph-name="six.lin" horiz-adv-x="427" 
d="M386 222q0 -101 -48 -165t-123 -64q-78 0 -123.5 67.5t-45.5 189.5q0 142 67 271.5t207 220.5l17 -23q-199 -134 -250 -356q49 82 133 82q73 0 119.5 -61.5t46.5 -161.5zM355 222q0 86 -38 140t-99 54t-100.5 -53.5t-39.5 -127.5q0 -94 38 -154.5t99 -60.5q62 0 101 56.5
t39 145.5z" />
    <glyph glyph-name="seven.lin" horiz-adv-x="371" 
d="M355 727l-240 -727h-32l233 699h-300v28h339z" />
    <glyph glyph-name="eight.lin" horiz-adv-x="418" 
d="M374 187q0 -86 -48 -140.5t-117 -54.5q-70 0 -117.5 54t-47.5 140q0 60 28.5 112t78.5 72q-45 21 -71.5 70.5t-26.5 108.5q0 82 44.5 134t111.5 52q68 0 112 -51.5t44 -134.5q0 -59 -26.5 -108t-71.5 -71q50 -20 78.5 -72.5t28.5 -110.5zM333 548q0 70 -34.5 114.5
t-90.5 44.5q-55 0 -89 -44.5t-34 -114.5t34 -117.5t90 -47.5t90 47.5t34 117.5zM342 186q0 71 -37.5 121t-95.5 50t-96 -50t-38 -121t38.5 -118.5t95.5 -47.5q56 0 94.5 47.5t38.5 118.5z" />
    <glyph glyph-name="nine.lin" horiz-adv-x="425" 
d="M40 505q0 101 48 165.5t123 64.5q79 0 124 -67.5t45 -190.5q0 -142 -67 -271.5t-207 -220.5l-17 24q199 132 250 355q-48 -81 -133 -81q-73 0 -119.5 61t-46.5 161zM71 506q0 -87 38 -141t99 -54t101 53.5t40 127.5q0 94 -38.5 154.5t-99.5 60.5q-62 0 -101 -56.5
t-39 -144.5z" />
    <glyph glyph-name="fraction.lin" horiz-adv-x="523" 
d="M508 733l-475 -744l-24 16l474 744z" />
    <glyph glyph-name="ampersand.cap" horiz-adv-x="547" 
d="M209 411q71 42 104 87.5t33 106.5q0 47 -22.5 77t-62.5 30q-41 0 -69 -38.5t-28 -91.5q0 -73 45 -171zM364 121q-113 142 -169 248q-119 -79 -119 -198q0 -64 36.5 -107.5t95.5 -43.5q79 0 156 101zM222 385q49 -95 161 -235q60 86 107 197l27 -14q-57 -129 -114 -207
q42 -50 106 -121l-25 -20q-11 13 -45.5 51t-55.5 62q-83 -107 -176 -107q-72 0 -117.5 50.5t-45.5 128.5q0 135 138 225q-49 106 -49 186q0 67 37 113t93 46q52 0 84 -38.5t32 -94.5q0 -71 -41 -123.5t-116 -98.5z" />
    <glyph glyph-name="guillemotleft.cap" horiz-adv-x="279" 
d="M248 207h-32l-82 164l82 163h32l-82 -163zM143 207h-32l-81 164l81 163h32l-81 -163z" />
    <glyph glyph-name="guillemotright.cap" horiz-adv-x="279" 
d="M249 371l-81 -164h-32l81 164l-81 163h32zM145 371l-82 -164h-32l82 164l-82 163h32z" />
    <glyph glyph-name="guilsinglleft.cap" horiz-adv-x="174" 
d="M143 207h-32l-81 164l81 163h32l-81 -163z" />
    <glyph glyph-name="guilsinglright.cap" horiz-adv-x="174" 
d="M144 371l-81 -164h-32l81 164l-81 163h32z" />
    <glyph glyph-name="hyphen.cap" horiz-adv-x="262" 
d="M220 355h-178v32h178v-32z" />
    <glyph glyph-name="endash.cap" horiz-adv-x="379" 
d="M337 357h-295v28h295v-28z" />
    <glyph glyph-name="emdash.cap" horiz-adv-x="564" 
d="M522 357h-480v28h480v-28z" />
    <glyph glyph-name="slash.cap" horiz-adv-x="235" 
d="M226 837l-185 -949h-29l185 949h29z" />
    <glyph glyph-name="backslash.cap" horiz-adv-x="235" 
d="M224 -112h-29l-185 949h29z" />
    <glyph glyph-name="bar.cap" horiz-adv-x="181" 
d="M104 -112h-28v949h28v-949z" />
    <glyph glyph-name="parenleft.cap" horiz-adv-x="271" 
d="M274 -102l-19 -21q-105 97 -157.5 224t-52.5 261q0 135 52.5 262t157.5 224l20 -21q-98 -91 -148 -213t-50 -252q0 -129 50 -250.5t147 -213.5z" />
    <glyph glyph-name="parenright.cap" horiz-adv-x="271" 
d="M226 362q0 -134 -52.5 -261t-157.5 -224l-19 21q98 92 148 213.5t50 250.5q0 130 -50 252t-148 213l19 21q105 -97 157.5 -224t52.5 -262z" />
    <glyph glyph-name="bracketleft.cap" horiz-adv-x="232" 
d="M219 -112h-152v949h152v-27h-121v-893h121v-29z" />
    <glyph glyph-name="bracketright.cap" horiz-adv-x="232" 
d="M165 -112h-151v27h120v895h-120v27h151v-949z" />
    <glyph glyph-name="braceleft.cap" horiz-adv-x="239" 
d="M229 -119q-61 0 -95.5 32.5t-34.5 98.5v263q0 73 -64 73h-18v30h18q64 0 64 73v262q0 66 34.5 98.5t95.5 32.5v-28q-98 0 -98 -104v-256q0 -79 -56 -93q56 -14 56 -94v-256q0 -104 98 -104v-28z" />
    <glyph glyph-name="braceright.cap" horiz-adv-x="239" 
d="M222 348h-17q-64 0 -64 -73v-263q0 -66 -34.5 -98.5t-95.5 -32.5v28q97 0 97 104v256q0 80 56 94q-56 14 -56 93v256q0 104 -97 104v28q60 0 95 -32.5t35 -98.5v-262q0 -73 64 -73h17v-30z" />
    <glyph glyph-name="at.cap" horiz-adv-x="643" 
d="M594 400q0 -126 -42 -177q-27 -35 -72 -35q-27 0 -48.5 17t-28.5 44q-38 -57 -91 -57q-40 0 -65.5 27.5t-25.5 75.5q0 47 27 75.5t69 28.5q36 0 77 -30v54q0 43 -18 62.5t-56 19.5q-32 0 -67 -16l-8 26q43 18 78 18q101 0 101 -108v-132q0 -40 17 -59.5t41 -19.5
q31 0 49 25q33 43 33 159q0 57 -13.5 111t-40 101t-73 76t-105.5 29q-111 0 -182 -101.5t-71 -248.5q0 -151 68.5 -248.5t197.5 -97.5q57 0 119 26l8 -24q-66 -29 -125 -29q-145 0 -221.5 104.5t-76.5 268.5q0 158 80 267t203 109q66 0 118 -30t82.5 -80t46 -109t15.5 -122z
M394 275v66q-37 31 -77 31q-28 0 -46.5 -20.5t-18.5 -54.5q0 -36 17.5 -57.5t43.5 -21.5q47 0 81 57z" />
    <glyph glyph-name="registered.alt" horiz-adv-x="650" 
d="M325 -12q-123 0 -205.5 110t-82.5 268t82.5 268.5t205.5 110.5t205.5 -110.5t82.5 -268.5t-82.5 -268t-205.5 -110zM325 13q112 0 186.5 103.5t74.5 249.5t-74.5 250t-186.5 104t-186.5 -104t-74.5 -250t74.5 -249.5t186.5 -103.5zM245 183v365q27 4 58 4q60 0 90.5 -31
t30.5 -79q0 -73 -66 -102l80 -157h-33l-74 149q-6 -1 -27 -1q-19 0 -30 1v-149h-29zM274 523v-166q9 -1 30 -1q42 0 65.5 22.5t23.5 63.5q0 39 -23.5 61.5t-65.5 22.5q-6 0 -30 -3z" />
    <glyph glyph-name="dollar.lin" horiz-adv-x="414" 
d="M239 797l26 -3l-8 -62q56 -10 101 -48l-17 -25q-39 32 -87 44l-38 -320q37 -26 57 -42.5t45 -44t36 -59t11 -69.5q0 -80 -52 -129t-127 -49q-11 0 -16 1l-8 -73l-26 4l8 72q-64 12 -128 62l17 25q59 -47 115 -59l40 341q-68 48 -103.5 92.5t-35.5 113.5q0 73 48.5 120
t122.5 47h12zM334 164q0 32 -9.5 58.5t-29 49.5t-37 38t-46.5 36l-38 -328h14q61 0 103.5 40.5t42.5 105.5zM80 573q0 -58 29 -96.5t84 -76.5l35 307h-10q-60 0 -99 -38t-39 -96z" />
    <glyph glyph-name="sterling.lin" horiz-adv-x="414" 
d="M396 0h-357v27h63v326h-65v15l65 14v165q0 89 42 138.5t124 49.5q65 0 127 -42l-16 -26q-57 39 -114 39q-132 0 -132 -156v-168h162v-28h-162v-327h263v-27z" />
    <glyph glyph-name="Euro.lin" horiz-adv-x="540" 
d="M93 425h-67v27h71q18 135 86.5 209t164.5 74q82 0 157 -55l-17 -26q-70 52 -141 52q-81 0 -140.5 -67t-77.5 -187h288v-27h-292q-2 -21 -2 -65q0 -36 3 -67h291v-28h-288q18 -117 78 -181t141 -64q68 0 142 53l15 -24q-75 -57 -159 -57q-96 0 -163.5 70.5t-86.5 202.5
h-70v28h67q-2 21 -2 67q0 23 2 65z" />
    <glyph glyph-name="yen.lin" horiz-adv-x="469" 
d="M441 727l-179 -377h141v-28h-150v-108h150v-27h-150v-187h-32v187h-150v27h150v108h-150v28h141l-179 377h35l169 -362l168 362h36z" />
    <glyph glyph-name="cent.lin" horiz-adv-x="336" 
d="M154 65l5 77q-58 14 -92.5 72t-34.5 145q0 96 44 159.5t114 66.5l6 83l28 -2q-3 -18 -7 -83q43 -5 84 -36l-17 -24q-38 27 -69 31q-19 -264 -27 -387h6q44 0 90 33l15 -23q-48 -38 -107 -38h-6l-5 -76zM63 360q0 -71 26.5 -122.5t71.5 -65.5l27 384q-57 -4 -91 -60
t-34 -136z" />
    <glyph glyph-name="numbersign.lin" horiz-adv-x="504" 
d="M486 486h-108l-42 -246h108l-5 -26h-108l-37 -214h-28l36 214h-152l-37 -214h-28l36 214h-107l5 26h107l43 246h-109l4 26h109l37 215h29l-38 -215h153l37 215h29l-38 -215h108zM197 486l-42 -246h152l43 246h-153z" />
    <glyph glyph-name="paragraph.lin" horiz-adv-x="513" 
d="M440 0h-32v697q-47 7 -95 7q-3 0 -9 -0.5t-10 -0.5v-703h-32v217q-97 5 -163.5 72.5t-66.5 175.5q0 120 76 193.5t207 73.5q58 0 125 -10v-722zM262 246v452q-93 -16 -145.5 -78t-52.5 -155q0 -94 57.5 -154t140.5 -65z" />
    <glyph glyph-name="section.lin" horiz-adv-x="407" 
d="M366 353q0 -46 -29 -78t-71 -44q72 -47 72 -113q0 -56 -40.5 -91t-106.5 -35q-82 0 -150 52l17 26q66 -49 133 -49q52 0 83 26t31 70q0 31 -19.5 55.5t-49 39t-63.5 31t-63.5 32t-49 42t-19.5 60.5q0 46 30 77.5t72 43.5q-75 45 -75 111q0 56 40.5 89.5t105.5 33.5
q75 0 134 -44l-17 -26q-55 42 -117 42q-52 0 -83 -25t-31 -68q0 -35 27.5 -61.5t66.5 -44t78 -35.5t66.5 -47.5t27.5 -69.5zM334 349q0 21 -7.5 37t-27.5 30.5t-32.5 22t-46.5 22.5t-46 21q-41 -7 -71 -34.5t-30 -65.5q0 -21 7.5 -37.5t28 -31t33 -21.5t47.5 -23t46 -21
q41 7 70 34t29 67z" />
    <glyph glyph-name="degree.lin" horiz-adv-x="325" 
d="M285 609q0 -51 -34 -88t-88 -37t-88 37t-34 88q0 52 34 89t87 37q54 0 88.5 -37t34.5 -89zM257 610q0 43 -26.5 71.5t-68.5 28.5q-41 0 -67.5 -28.5t-26.5 -71.5q0 -42 26.5 -72t67.5 -30q42 0 68.5 30t26.5 72z" />
    <glyph glyph-name="percent.lin" horiz-adv-x="577" 
d="M274 559q0 -76 -32 -125.5t-88 -49.5q-55 0 -86.5 49.5t-31.5 125.5q0 77 32 126.5t87 49.5t87 -49.5t32 -126.5zM243 559q0 64 -22.5 106.5t-65.5 42.5t-66 -43t-23 -106q0 -64 22.5 -106.5t65.5 -42.5t66 43t23 106zM529 724l-459 -735l-22 14l459 735zM541 167
q0 -76 -32 -125.5t-87 -49.5q-56 0 -87.5 49.5t-31.5 125.5q0 77 32 126.5t88 49.5q55 0 86.5 -49.5t31.5 -126.5zM511 167q0 64 -22.5 107t-65.5 43t-66 -43.5t-23 -106.5t22.5 -106t65.5 -43t66 43t23 106z" />
    <glyph glyph-name="perthousand.lin" horiz-adv-x="844" 
d="M243 559q0 64 -22.5 106.5t-65.5 42.5t-66 -43t-23 -106q0 -64 22.5 -106.5t65.5 -42.5t66 43t23 106zM274 559q0 -76 -32 -125.5t-88 -49.5q-55 0 -86.5 49.5t-31.5 125.5q0 77 32 126.5t87 49.5t87 -49.5t32 -126.5zM529 724l-459 -735l-22 14l459 735zM511 167
q0 64 -22.5 107t-65.5 43t-66 -43.5t-23 -106.5t22.5 -106t65.5 -43t66 43t23 106zM541 167q0 -76 -32 -125.5t-87 -49.5q-56 0 -87.5 49.5t-31.5 125.5q0 77 32 126.5t88 49.5q55 0 86.5 -49.5t31.5 -126.5zM782 167q0 64 -22.5 107t-65.5 43t-66 -43.5t-23 -106.5
t22.5 -106t65.5 -43t66 43t23 106zM813 167q0 -76 -32.5 -125.5t-87.5 -49.5t-87 49.5t-32 125.5q0 77 32 126.5t88 49.5q55 0 87 -49.5t32 -126.5z" />
    <glyph glyph-name="quotedbl.cap" horiz-adv-x="255" 
d="M138 725l-89 -175l-19 10l79 180zM237 713l-89 -174l-19 10l79 179z" />
    <glyph glyph-name="quotesingle.cap" horiz-adv-x="156" 
d="M138 725l-89 -175l-19 10l79 180z" />
    <glyph glyph-name="plus.lin" horiz-adv-x="375" 
d="M335 356h-132v-138h-31v138h-131v29h131v138h31v-138h132v-29z" />
    <glyph glyph-name="minus.lin" horiz-adv-x="375" 
d="M41 356v29h294v-29h-294z" />
    <glyph glyph-name="divide.lin" horiz-adv-x="375" 
d="M41 356v29h294v-29h-294zM161 500q0 11 8 19.5t19 8.5t19 -8.5t8 -19.5t-8 -19.5t-19 -8.5t-19 8.5t-8 19.5zM161 241q0 11 8 19.5t19 8.5t19 -8.5t8 -19.5t-8 -19.5t-19 -8.5t-19 8.5t-8 19.5z" />
    <glyph glyph-name="equal.lin" horiz-adv-x="302" 
d="M257 415h-212v29h212v-29zM257 297h-212v29h212v-29z" />
    <glyph glyph-name="multiply.lin" horiz-adv-x="351" 
d="M49 477l20 20l106 -107l107 107l20 -20l-107 -107l107 -106l-20 -20l-107 106l-106 -106l-20 20l106 106z" />
    <glyph glyph-name="less.lin" horiz-adv-x="271" 
d="M239 150l-21 -19l-196 241l196 241l21 -19l-180 -222z" />
    <glyph glyph-name="greater.lin" horiz-adv-x="271" 
d="M246 371l-196 -240l-21 18l180 222l-180 222l21 19z" />
    <glyph glyph-name="florin.lin" horiz-adv-x="338" 
d="M334 726l-9 -29q-25 9 -50 9q-49 0 -74.5 -34.5t-33.5 -105.5l-15 -141h97l-3 -29h-97l-41 -396h-32l42 395h-65l2 16l65 13l15 144q17 167 144 167q26 0 55 -9z" />
    <glyph glyph-name="arrowleft.cap" horiz-adv-x="546" 
d="M509 357h-438l174 -177l-20 -20l-205 208v6l205 208l20 -20l-174 -177h438v-28z" />
    <glyph glyph-name="arrowright.cap" horiz-adv-x="546" 
d="M36 385h439l-175 177l21 20l204 -208v-6l-204 -208l-21 20l175 177h-439v28z" />
    <glyph glyph-name="hfjslug" horiz-adv-x="694" 
d="M644 -200h-208l-8 14h-163l-8 -14h-207v303q14 0 23 9.5t9 22.5t-9.5 22.5t-22.5 9.5v554h100l30 79h334l29 -79h101v-921zM400 563v-172h15v78h38v14h-38v66h43v14h-58zM184 563v-172h15v79h47v-79h15v172h-15v-79h-47v79h-15zM460 394q8 -4 21 -4q31 0 31 36v137h-16
v-137q0 -22 -16 -22q-10 0 -20 6v-16zM349 438l-16 31q23 21 23 42q0 12 -7 21.5t-20 9.5q-12 0 -20 -9.5t-8 -21.5q0 -13 14 -39q-23 -18 -23 -45q0 -17 9 -28t22 -11q17 0 27 24h1l12 -24l11 8l-16 30q10 23 13 39l-13 3q-2 -9 -9 -30zM523 323v-46h8v13l7 7l16 -20h9
l-19 26l18 20h-10l-21 -24v24h-8zM488 292l10 -15h9l-12 17q10 3 10 15q0 5 -4.5 9.5t-11.5 4.5h-21v-46h8v15h12zM426 276q11 0 17.5 7t6.5 17q0 9 -7 16.5t-17 7.5t-16.5 -7.5t-6.5 -16.5q0 -10 6.5 -17t16.5 -7zM370 301l-13 22h-9l18 -29v-17h8v17l18 29h-9zM193 323
v-46h33v7h-25v13h22v7h-22v12h25v7h-33zM132 323v-46h8v32l25 -32h7v46h-8v-32l-25 32h-7zM241 323l15 -47h8l10 34h1l11 -34h8l14 47h-8l-10 -35h-1l-10 35h-8l-11 -35h-1l-10 35h-8zM327 479q-12 22 -12 32q0 19 14 19q13 0 13 -19q0 -15 -15 -32zM342 423q-6 -21 -18 -21
q-17 0 -17 27q0 18 15 33zM488 299h-12v17h11q10 0 10 -8q0 -9 -9 -9zM426 283q-15 0 -15 17q0 6 4.5 11.5t10.5 5.5q7 0 11.5 -5.5t4.5 -11.5q0 -7 -4.5 -12t-11.5 -5z" />
    <glyph glyph-name="caron.alt" horiz-adv-x="223" 
d="M117 736l30 -4q0 -121 -67 -187l-13 11q50 62 50 180z" />
    <glyph glyph-name="NUL" horiz-adv-x="0" 
 />
    </font>
</defs>
</svg>
