<svg xmlns="http://www.w3.org/2000/svg" width="32.092" height="32.091" viewBox="0 0 32.092 32.091">
  <g id="Group_2456" data-name="Group 2456" transform="translate(-327.5 -645)">
    <g id="_Icons_4_Avatar_3" data-name="_Icons / 4 Avatar_3" transform="translate(327.5 645)">
      <path id="Combined_Shape" data-name="Combined Shape" d="M11.653,29.8H3.2a3.31,3.31,0,0,1-2.276-.919A3.008,3.008,0,0,1,0,26.7c0-6.515,6.026-11.8,13.458-11.8h.694a1.743,1.743,0,0,1,1.521.939,1.593,1.593,0,0,1-.184,1.718,11.908,11.908,0,0,0-2.465,7.276,12.1,12.1,0,0,0,.364,2.93,1.6,1.6,0,0,1-.343,1.426A1.768,1.768,0,0,1,11.7,29.8ZM6.946,6.209A6.366,6.366,0,0,1,13.458,0a6.366,6.366,0,0,1,6.512,6.209,6.366,6.366,0,0,1-6.512,6.208A6.366,6.366,0,0,1,6.946,6.209Z" transform="translate(0)"/>
    </g>
    <path id="Exclusion_1" data-name="Exclusion 1" d="M7.659,15.316A7.658,7.658,0,0,1,2.243,2.243a7.658,7.658,0,0,1,10.83,10.83A7.607,7.607,0,0,1,7.659,15.316ZM9.516,3.545a.931.931,0,0,0-.662.274l-3.94,3.94a.971.971,0,0,0-.245.419l-.734,2.744a.376.376,0,0,0,.363.472.325.325,0,0,0,.1-.014l2.746-.734a.964.964,0,0,0,.419-.241L11.5,6.463a.94.94,0,0,0,0-1.323L10.176,3.819A.928.928,0,0,0,9.516,3.545ZM5.928,8.97a.361.361,0,0,1-.264-.11A.367.367,0,0,1,5.554,8.6a.372.372,0,0,1,.109-.266l3.588-3.59a.362.362,0,0,1,.262-.108.412.412,0,0,1,.145.027.375.375,0,0,1,.229.346.371.371,0,0,1-.108.262L6.193,8.861A.365.365,0,0,1,5.928,8.97Z" transform="translate(344.275 661.775)"/>
  </g>
</svg>
