<svg xmlns="http://www.w3.org/2000/svg" style="display: none;">
	<symbol id="admin" viewBox="0 0 32.092 32.091">
	  <g id="Group_2456" data-name="Group 2456" transform="translate(-327.5 -645)">
	    <g id="_Icons_4_Avatar_3" data-name="_Icons / 4 Avatar_3" transform="translate(327.5 645)">
	      <path id="Combined_Shape" data-name="Combined Shape" d="M11.653,29.8H3.2a3.31,3.31,0,0,1-2.276-.919A3.008,3.008,0,0,1,0,26.7c0-6.515,6.026-11.8,13.458-11.8h.694a1.743,1.743,0,0,1,1.521.939,1.593,1.593,0,0,1-.184,1.718,11.908,11.908,0,0,0-2.465,7.276,12.1,12.1,0,0,0,.364,2.93,1.6,1.6,0,0,1-.343,1.426A1.768,1.768,0,0,1,11.7,29.8ZM6.946,6.209A6.366,6.366,0,0,1,13.458,0a6.366,6.366,0,0,1,6.512,6.209,6.366,6.366,0,0,1-6.512,6.208A6.366,6.366,0,0,1,6.946,6.209Z" transform="translate(0)"/>
	    </g>
	    <path id="Exclusion_1" data-name="Exclusion 1" d="M7.659,15.316A7.658,7.658,0,0,1,2.243,2.243a7.658,7.658,0,0,1,10.83,10.83A7.607,7.607,0,0,1,7.659,15.316ZM9.516,3.545a.931.931,0,0,0-.662.274l-3.94,3.94a.971.971,0,0,0-.245.419l-.734,2.744a.376.376,0,0,0,.363.472.325.325,0,0,0,.1-.014l2.746-.734a.964.964,0,0,0,.419-.241L11.5,6.463a.94.94,0,0,0,0-1.323L10.176,3.819A.928.928,0,0,0,9.516,3.545ZM5.928,8.97a.361.361,0,0,1-.264-.11A.367.367,0,0,1,5.554,8.6a.372.372,0,0,1,.109-.266l3.588-3.59a.362.362,0,0,1,.262-.108.412.412,0,0,1,.145.027.375.375,0,0,1,.229.346.371.371,0,0,1-.108.262L6.193,8.861A.365.365,0,0,1,5.928,8.97Z" transform="translate(344.275 661.775)"/>
	  </g>
	</symbol>
	<symbol id="history" viewBox="0 0 44 44">
  		<path id="_6_Paper_3" data-name="6 Paper_3" d="M20.666,31H3.334a3.412,3.412,0,0,1-2.357-.946A3.2,3.2,0,0,1,0,27.771V3.229A3.286,3.286,0,0,1,3.334,0h9.953A3.365,3.365,0,0,1,15.64.943L23.027,8.1A3.2,3.2,0,0,1,24,10.379V27.771A3.286,3.286,0,0,1,20.666,31ZM8,21.959a1.292,1.292,0,1,0,0,2.584h8a1.292,1.292,0,1,0,0-2.584Zm0-5.813a1.292,1.292,0,1,0,0,2.584h4.666a1.292,1.292,0,1,0,0-2.584Zm5.332-13.3a.677.677,0,0,0-.251.048.646.646,0,0,0-.415.6V7.751A3.286,3.286,0,0,0,16,10.979h4.393a.663.663,0,0,0,.615-.4.632.632,0,0,0-.148-.7L13.806,3.043A.684.684,0,0,0,13.332,2.851Z" transform="translate(10.5 6)" />
	</symbol>
	<symbol id="wallet" viewBox="0 0 44 44">
  		<path id="Combined_Shape" data-name="Combined Shape" d="M3.274,23.572A3.274,3.274,0,0,1,0,20.3V3.274A3.273,3.273,0,0,1,3.274,0H26.191a3.273,3.273,0,0,1,3.273,3.274V5.239a1.309,1.309,0,0,1-1.31,1.31H27.5a5.238,5.238,0,0,0,0,10.476h.655a1.309,1.309,0,0,1,1.31,1.31V20.3a3.274,3.274,0,0,1-3.273,3.274ZM27.5,14.4a2.619,2.619,0,0,1,0-5.239h2.619a1.309,1.309,0,0,1,1.31,1.31v2.619a1.309,1.309,0,0,1-1.31,1.31Z" transform="translate(6.286 10.214)"/>
	</symbol>
	<symbol id="billing" viewBox="0 0 44 44">
  		<path id="Combined_Shape" data-name="Combined Shape" d="M7.2,31.428A3.933,3.933,0,0,1,3.274,27.5V20.953A3.279,3.279,0,0,1,0,17.679V11.13A3.277,3.277,0,0,1,3.274,7.858V3.929A3.933,3.933,0,0,1,7.2,0H20.3a3.933,3.933,0,0,1,3.929,3.929V7.858A3.278,3.278,0,0,1,27.5,11.13v6.548a3.277,3.277,0,0,1-3.273,3.274V27.5A3.933,3.933,0,0,1,20.3,31.428ZM6.548,27.5a.656.656,0,0,0,.655.655H20.3a.656.656,0,0,0,.655-.655V14.4H6.548Zm0-23.57V7.858h14.4V3.929a.656.656,0,0,0-.655-.655H7.2A.656.656,0,0,0,6.548,3.929ZM11.13,24.882a1.31,1.31,0,1,1,0-2.619H14.4a1.31,1.31,0,1,1,0,2.619Zm0-4.584a1.31,1.31,0,1,1,0-2.619h5.239a1.31,1.31,0,1,1,0,2.619Z" transform="translate(8.25 6.286)"/>
	</symbol>
	<symbol id="subject" viewBox="0 0 44 44">
		 <path id="_14_Book_2" data-name="14 Book_2" d="M4.241,5.655A1.419,1.419,0,0,1,2.827,4.094,1.47,1.47,0,0,1,4.32,2.827H16.6A1.47,1.47,0,0,0,18.1,1.561,1.414,1.414,0,0,0,16.682,0H4.241A4.235,4.235,0,0,0,0,3.958H0V24.316a2.827,2.827,0,0,0,2.827,2.827h14.7a2.827,2.827,0,0,0,2.827-2.827V8.482A2.827,2.827,0,0,0,17.53,5.655Z" transform="translate(8.821 5.429)"/>
	</symbol>
	<symbol id="support" viewBox="0 0 44 44">
  		<path id="Combined_Shape" data-name="Combined Shape" d="M18.4,29.326A53.347,53.347,0,0,1,1.387,12.318,9.077,9.077,0,0,1,2.652,1.085l.2-.2a2.925,2.925,0,0,1,4.517.395l4.021,5.738a2.961,2.961,0,0,1-.33,3.793l-.249.249a2.238,2.238,0,0,0-.358,2.734,18.532,18.532,0,0,0,6.469,6.469,2.234,2.234,0,0,0,2.732-.359l.249-.248a2.959,2.959,0,0,1,3.793-.33l5.738,4.019a2.923,2.923,0,0,1,.395,4.517l-.2.2A9.078,9.078,0,0,1,18.4,29.326Zm8.646-16.884a8.771,8.771,0,0,0-8.77-8.771,1.827,1.827,0,1,1,0-3.655A12.427,12.427,0,0,1,30.7,12.443a1.827,1.827,0,1,1-3.655,0Zm-6.578,0a2.192,2.192,0,0,0-2.192-2.192,1.827,1.827,0,0,1,0-3.655,5.847,5.847,0,0,1,5.847,5.847,1.827,1.827,0,1,1-3.655,0Z" transform="translate(6.288 6.999)"/>
	</symbol>
	<symbol id="logout" viewBox="0 0 44 44">
  		<path id="Combined_Shape" data-name="Combined Shape" d="M6.548,31.428A3.928,3.928,0,0,1,2.619,27.5V25.863a1.637,1.637,0,0,1,3.274,0V27.5a.654.654,0,0,0,.655.655H19.643A.654.654,0,0,0,20.3,27.5V3.929a.654.654,0,0,0-.655-.655H6.548a.654.654,0,0,0-.655.655V5.565a1.637,1.637,0,1,1-3.274,0V3.929A3.929,3.929,0,0,1,6.548,0H19.643a3.929,3.929,0,0,1,3.929,3.929V27.5a3.928,3.928,0,0,1-3.929,3.929Zm2.073-9.6a1.309,1.309,0,0,1-.81-1.211V18.333H1.31A1.31,1.31,0,0,1,0,17.024V14.4a1.31,1.31,0,0,1,1.31-1.31h6.5V10.811a1.309,1.309,0,0,1,2.239-.924l4.9,4.9a1.31,1.31,0,0,1,0,1.847l-4.9,4.9a1.3,1.3,0,0,1-1.428.289Z" transform="translate(10.214 6.286)"/>
	</symbol>
	<symbol id="twitter" viewBox="0 0 20.618 16.982">
		<g id="Group_274" data-name="Group 274" transform="translate(0)">
		    <g id="Group_269" data-name="Group 269">
		      <path id="Path_173" data-name="Path 173" d="M564.21,219.174a8.458,8.458,0,0,1-2.082.6c.335-.056.83-.664,1.028-.909a3.838,3.838,0,0,0,.693-1.263c.018-.036.032-.082,0-.109a.117.117,0,0,0-.11.009,10.624,10.624,0,0,1-2.474.947.165.165,0,0,1-.17-.045,2,2,0,0,0-.216-.221,4.379,4.379,0,0,0-1.2-.734,4.175,4.175,0,0,0-1.838-.3,4.394,4.394,0,0,0-1.743.493,4.5,4.5,0,0,0-1.407,1.149,4.332,4.332,0,0,0-.84,1.683,4.554,4.554,0,0,0-.044,1.777c.013.1,0,.113-.086.1a13.211,13.211,0,0,1-8.5-4.327c-.1-.113-.153-.113-.235.009a4.309,4.309,0,0,0,.735,5.093c.167.157.338.316.522.46a4.318,4.318,0,0,1-1.64-.46c-.1-.063-.149-.027-.158.086a2.571,2.571,0,0,0,.027.487,4.359,4.359,0,0,0,2.686,3.475,2.526,2.526,0,0,0,.545.167,4.856,4.856,0,0,1-1.609.05c-.117-.023-.162.036-.117.149a4.525,4.525,0,0,0,3.38,2.83c.154.027.307.027.46.063-.009.014-.018.014-.027.027a5.357,5.357,0,0,1-2.308,1.224,8.272,8.272,0,0,1-3.506.449c-.189-.028-.228-.026-.279,0s-.006.077.054.126c.238.158.482.3.73.433a11.586,11.586,0,0,0,2.344.938,12.483,12.483,0,0,0,12.119-2.834c2.484-2.468,3.354-5.871,3.354-9.277,0-.134.157-.207.251-.277a8.167,8.167,0,0,0,1.642-1.716.5.5,0,0,0,.1-.329v-.018C564.288,219.12,564.295,219.136,564.21,219.174Z" transform="translate(-543.67 -217.139)"/>
		    </g>
		    <g id="Group_270" data-name="Group 270" transform="translate(6.123 16.909)">
		      <path id="Path_174" data-name="Path 174" d="M553.118,243.228Z" transform="translate(-553.118 -243.228)" fill-rule="evenodd"/>
		    </g>
		    <g id="Group_271" data-name="Group 271" transform="translate(5.966 16.909)">
		      <path id="Path_175" data-name="Path 175" d="M553.033,243.228c-.027,0-.34,0,0,0Z" transform="translate(-552.875 -243.228)" fill-rule="evenodd"/>
		    </g>
		    <g id="Group_272" data-name="Group 272" transform="translate(6.818 16.912)">
		      <path id="Path_176" data-name="Path 176" d="M554.189,243.248c0-.034.365,0,0,0C554.189,243.23,554.234,243.248,554.189,243.248Z" transform="translate(-554.189 -243.232)" fill-rule="evenodd"/>
		    </g>
		    <g id="Group_273" data-name="Group 273" transform="translate(14.024 0.025)">
		      <path id="Path_177" data-name="Path 177" d="M565.394,217.177a.074.074,0,0,1-.086,0Z" transform="translate(-565.308 -217.177)" fill-rule="evenodd"/>
		    </g>
		</g>
	</symbol>
	<symbol id="facebook" viewBox="0 0 9.852 21.205">
		  <g id="Group_277" data-name="Group 277" transform="translate(0 0)">
		    <path id="Path_179" data-name="Path 179" d="M635.755,224.567v10.252a.267.267,0,0,0,.267.267h3.807a.267.267,0,0,0,.267-.267V224.4h2.76a.267.267,0,0,0,.266-.244l.266-3.14a.268.268,0,0,0-.266-.29H640.1V218.5a.945.945,0,0,1,.945-.946h2.128a.267.267,0,0,0,.267-.267v-3.139a.267.267,0,0,0-.267-.267h-3.594a3.819,3.819,0,0,0-3.819,3.819v3.026h-1.9a.267.267,0,0,0-.267.267v3.14a.267.267,0,0,0,.267.267h1.9Z" transform="translate(-633.584 -213.881)" fill-rule="evenodd"/>
		  </g>
	</symbol>
	<symbol id="instagram" viewBox="0 0 22.119 22.12">
	  <g id="Group_283" data-name="Group 283" transform="translate(0)">
	    <path id="Path_182" data-name="Path 182" d="M723.1,217.533a1.3,1.3,0,1,0,1.3,1.3A1.3,1.3,0,0,0,723.1,217.533Zm-5.781,1.668a5.463,5.463,0,1,0,5.462,5.463A5.469,5.469,0,0,0,717.315,219.2Zm0,8.962a3.5,3.5,0,1,1,3.5-3.5A3.5,3.5,0,0,1,717.315,228.163Zm11.022-8.039a6.663,6.663,0,0,0-6.663-6.663h-8.794a6.663,6.663,0,0,0-6.663,6.663v8.794a6.663,6.663,0,0,0,6.663,6.663h8.794a6.663,6.663,0,0,0,6.663-6.663Zm-2.086,8.794a4.576,4.576,0,0,1-4.576,4.576h-8.794a4.576,4.576,0,0,1-4.576-4.576v-8.794a4.576,4.576,0,0,1,4.576-4.576h8.794a4.576,4.576,0,0,1,4.576,4.576Z" transform="translate(-706.218 -213.461)"/>
	  </g>
	</symbol>
	<symbol id="get-help" viewBox="0 0 53.455 53.455">
		  <g id="Group_2423" data-name="Group 2423" transform="translate(0 0)">
		    <g id="_Icons_4_Avatar_3" data-name="_Icons / 4 Avatar_3" transform="translate(0)">
		      <path id="Combined_Shape" data-name="Combined Shape" d="M19.41,49.638H5.337a5.513,5.513,0,0,1-3.792-1.531A5.01,5.01,0,0,1,0,44.467C0,33.616,10.037,24.819,22.418,24.819h1.157a2.9,2.9,0,0,1,2.533,1.564,2.654,2.654,0,0,1-.306,2.862,19.835,19.835,0,0,0-4.107,12.12,20.153,20.153,0,0,0,.607,4.88,2.658,2.658,0,0,1-.571,2.375,2.945,2.945,0,0,1-2.243,1.018Zm-7.839-39.3A10.6,10.6,0,0,1,22.418,0,10.6,10.6,0,0,1,33.265,10.342,10.6,10.6,0,0,1,22.418,20.682,10.6,10.6,0,0,1,11.57,10.342Z" transform="translate(0 0)"/>
		    </g>
		    <path id="Exclusion_1" data-name="Exclusion 1" d="M12.756,0A12.756,12.756,0,1,1,0,12.756,12.756,12.756,0,0,1,12.756,0Z" transform="translate(27.943 27.943)"/>
		  </g>
		  <text id="_" data-name="?" transform="translate(36.676 47.02)" fill="#0093e4" font-size="15" font-family="SegoeUI, Segoe UI"><tspan x="0" y="0">?</tspan></text>
	</symbol>
	<symbol id="help" viewBox="0 0 48.874 48.874">
		  <g id="Group_2445" data-name="Group 2445" transform="translate(0)">
		    <g id="_Icons_4_Avatar_3" data-name="_Icons / 4 Avatar_3" transform="translate(0)">
		      <path id="Combined_Shape" data-name="Combined Shape" d="M17.746,45.384H4.88a5.04,5.04,0,0,1-3.467-1.4A4.581,4.581,0,0,1,0,40.657c0-9.921,9.177-17.964,20.5-17.964h1.058a2.654,2.654,0,0,1,2.316,1.43,2.426,2.426,0,0,1-.28,2.617A18.135,18.135,0,0,0,19.836,37.82a18.426,18.426,0,0,0,.555,4.462,2.43,2.43,0,0,1-.522,2.171,2.693,2.693,0,0,1-2.051.931ZM10.579,9.455A9.7,9.7,0,0,1,20.5,0a9.7,9.7,0,0,1,9.918,9.455A9.694,9.694,0,0,1,20.5,18.91,9.694,9.694,0,0,1,10.579,9.455Z" transform="translate(0)" />
		    </g>
		    <path id="Exclusion_1" data-name="Exclusion 1" d="M11.663,0A11.663,11.663,0,1,1,0,11.663,11.663,11.663,0,0,1,11.663,0Z" transform="translate(25.548 25.549)" />
		  </g>
		  <path id="Path_3386" data-name="Path 3386" d="M6286.918,6414.36l3.072,3.072,6.326-6.326" transform="translate(-6254.556 -6376.094)" fill="none" stroke="#fff" stroke-linecap="round" stroke-width="3"/>
	</symbol>
	<symbol id="left-nav" viewBox="0 0 14.508 23.358">
		  <path id="Path_12" data-name="Path 12" d="M8.851,17.7,0,8.851,8.851,0" transform="translate(2.828 2.828)" fill="none" stroke-linecap="round" stroke-width="4"/>
	</symbol>
	<symbol id="right-nav" viewBox="0 0 14.508 23.358">
 		 <path id="Path_11" data-name="Path 11" d="M8.851,0,0,8.851,8.851,17.7" transform="translate(11.679 20.53) rotate(180)" fill="none" stroke-linecap="round" stroke-width="4"/>
	</symbol>
</svg>

