<svg id="Triangle-Ruller" xmlns="http://www.w3.org/2000/svg" width="67.978" height="67.978" viewBox="0 0 67.978 67.978">
  <rect id="Shape" width="67.978" height="67.978" transform="translate(0 0)" fill="none"/>
  <path id="Shape-2" data-name="Shape" d="M597.384,271.58l48.945,50.3a5.438,5.438,0,0,1-3.9,9.23H593.486a5.438,5.438,0,0,1-5.438-5.438v-50.3A5.438,5.438,0,0,1,597.384,271.58Zm1.54,48.657h30.628L598.924,288.76Z" transform="translate(-583.97 -267.215)" fill="#00bbdf"/>
  <path id="Shape-3" data-name="Shape" d="M597.252,272.265l.948.973-4.491,4.492a.68.68,0,0,1-.961-.961Zm4.023,4.134.948.973-1.716,1.717a.68.68,0,0,1-.961-.961l1.729-1.729Zm4.023,4.134.948.975-4.379,4.379a.68.68,0,0,1-.961-.961l4.393-4.393Zm4.021,4.134.949.975-1.6,1.6a.68.68,0,0,1-.961-.961Zm4.023,4.134.949.975-4.268,4.268a.68.68,0,0,1-.961-.961Zm4.023,4.134.949.975-1.493,1.493a.68.68,0,0,1-.961-.961l1.505-1.506Zm4.023,4.134.949.975-4.156,4.156a.68.68,0,0,1-.961-.961l4.168-4.17Zm4.023,4.134.949.975-1.381,1.381a.68.68,0,0,1-.961-.961l1.393-1.395Zm4.023,4.134.948.975-4.043,4.045a.68.68,0,0,1-.961-.961l4.057-4.058Zm4.023,4.134.948.975-1.269,1.27a.68.68,0,0,1-.961-.961l1.282-1.283Zm4.023,4.136.948.973-3.932,3.933a.68.68,0,0,1-.961-.961l3.945-3.945Zm4.023,4.135.948.973-1.157,1.158a.68.68,0,0,1-.961-.961Z" transform="translate(-582.352 -266.373)" fill="#004a7c"/>
</svg>
