<svg id="Bag" xmlns="http://www.w3.org/2000/svg" width="67.786" height="67.786" viewBox="0 0 67.786 67.786">
  <rect id="Shape" width="67.786" height="67.786" transform="translate(0 0)" fill="none"/>
  <path id="Shape-2" data-name="Shape" d="M426.874,180.065a2.712,2.712,0,0,0-2.711-2.711h-18.98a2.712,2.712,0,0,0-2.711,2.711v35.249h24.4Zm-21.691-8.134h18.98a8.134,8.134,0,0,1,8.134,8.134v36.6a4.067,4.067,0,0,1-4.067,4.067H401.115a4.067,4.067,0,0,1-4.067-4.067v-36.6A8.135,8.135,0,0,1,405.182,171.931Z" transform="translate(-380.78 -166.508)" fill="#004d76"/>
  <path id="Shape-3" data-name="Shape" d="M388.4,180.931h59.651a1.355,1.355,0,0,1,1.356,1.356v42.027a1.355,1.355,0,0,1-1.356,1.356H388.4a1.356,1.356,0,0,1-1.356-1.356V182.287A1.356,1.356,0,0,1,388.4,180.931Z" transform="translate(-384.337 -163.307)" fill="#0093d5"/>
  <path id="Shape-4" data-name="Shape" d="M411.4,180.931h28.47a1.355,1.355,0,0,1,1.356,1.356v42.027a1.355,1.355,0,0,1-1.356,1.356H410.048V182.287A1.356,1.356,0,0,1,411.4,180.931Z" transform="translate(-376.156 -163.307)" fill="#0097db"/>
  <path id="Shape-5" data-name="Shape" d="M388.4,180.931h59.651a1.355,1.355,0,0,1,1.356,1.356v16.269a5.423,5.423,0,0,1-5.423,5.423H392.471a5.423,5.423,0,0,1-5.423-5.423V182.287A1.356,1.356,0,0,1,388.4,180.931Z" transform="translate(-384.337 -163.307)" fill="#004c78"/>
  <path id="Shape-6" data-name="Shape" d="M388.4,180.931h59.651a1.355,1.355,0,0,1,1.356,1.356v13.557a5.423,5.423,0,0,1-5.423,5.423H392.471a5.423,5.423,0,0,1-5.423-5.423V182.287A1.356,1.356,0,0,1,388.4,180.931Z" transform="translate(-384.337 -163.307)" fill="#007ab2"/>
  <path id="Shape-7" data-name="Shape" d="M410.048,180.931h29.826a1.355,1.355,0,0,1,1.356,1.356v13.557a5.423,5.423,0,0,1-5.423,5.423H410.048Z" transform="translate(-376.156 -163.307)" fill="#0079b4"/>
  <path id="Shape-8" data-name="Shape" d="M408.4,191.931h5.423a1.355,1.355,0,0,1,1.356,1.356v8.134a1.355,1.355,0,0,1-1.356,1.356H408.4a1.356,1.356,0,0,1-1.356-1.356v-8.134A1.356,1.356,0,0,1,408.4,191.931Z" transform="translate(-377.223 -159.394)" fill="#0bd"/>
</svg>
