<svg id="Newtons-Cradle" xmlns="http://www.w3.org/2000/svg" width="64.842" height="64.842" viewBox="0 0 64.842 64.842">
  <rect id="Shape" width="64.842" height="64.842" transform="translate(0 0)" fill="none"/>
  <path id="Shape-2" data-name="Shape" d="M297.048,271.931h2.594v36.311h-2.594Z" transform="translate(-281.486 -266.744)" fill="#64c6f3"/>
  <path id="Shape-3" data-name="Shape" d="M305.048,271.931h2.594v36.311h-2.594Z" transform="translate(-279.112 -266.744)" fill="#64c6f3"/>
  <path id="Shape-4" data-name="Shape" d="M313.048,271.931h2.594v36.311h-2.594Z" transform="translate(-276.737 -266.744)" fill="#64c6f3"/>
  <path id="Shape-5" data-name="Shape" d="M320.064,272.211l2.553-.456,6.484,36.311-2.553.456Z" transform="translate(-274.654 -266.796)" fill="#64c6f3"/>
  <path id="Shape-6" data-name="Shape" d="M294.235,325.7h-5.187V277.712a7.781,7.781,0,0,1,7.781-7.781h38.905a7.781,7.781,0,0,1,7.781,7.781V325.7h-5.187V277.712a2.594,2.594,0,0,0-2.594-2.594H296.829a2.6,2.6,0,0,0-2.594,2.594Z" transform="translate(-283.861 -267.337)" fill="#007ab2"/>
  <path id="Shape-7" data-name="Shape" d="M316.282,269.931v5.187H296.829a2.6,2.6,0,0,0-2.594,2.594V325.7h-5.187V277.712a7.781,7.781,0,0,1,7.781-7.781Z" transform="translate(-283.861 -267.337)" fill="#007ab2"/>
  <path id="Shape-8" data-name="Shape" d="M288.345,309.931h57.061a1.3,1.3,0,0,1,1.3,1.3v5.187a1.3,1.3,0,0,1-1.3,1.3H288.345a1.3,1.3,0,0,1-1.3-1.3v-5.187A1.3,1.3,0,0,1,288.345,309.931Z" transform="translate(-284.455 -255.464)" fill="#004d76"/>
  <circle id="Shape-9" data-name="Shape" cx="3.891" cy="3.891" r="3.891" transform="translate(12.968 38.905)" fill="#0095d8"/>
  <circle id="Shape-10" data-name="Shape" cx="3.891" cy="3.891" r="3.891" transform="translate(23.343 38.905)" fill="#0095d8"/>
  <circle id="Shape-11" data-name="Shape" cx="3.891" cy="3.891" r="3.891" transform="translate(33.718 38.905)" fill="#0095d8"/>
  <circle id="Shape-12" data-name="Shape" cx="3.891" cy="3.891" r="3.891" transform="translate(49.28 38.905)" fill="#0095d8"/>
</svg>
